  0
SECTION
  2
HEADER
  9
$ACADVER
  1
AC1024
  9
$ACADMAINTVER
 70
     6
  9
$DWGCODEPAGE
  3
ANSI_1252
  9
$INSBASE
 10
0.0
 20
0.0
 30
0.0
  9
$EXTMIN
 10
1.000000000000000E+20
 20
1.000000000000000E+20
 30
1.000000000000000E+20
  9
$EXTMAX
 10
-1.000000000000000E+20
 20
-1.000000000000000E+20
 30
-1.000000000000000E+20
  9
$LIMMIN
 10
0.0
 20
0.0
  9
$LIMMAX
 10
12.0
 20
9.0
  9
$ORTHOMODE
 70
     0
  9
$REGENMODE
 70
     1
  9
$FILLMODE
 70
     1
  9
$QTEXTMODE
 70
     0
  9
$MIRRTEXT
 70
     1
  9
$LTSCALE
 40
1.0
  9
$ATTMODE
 70
     1
  9
$TEXTSIZE
 40
0.2
  9
$TRACEWID
 40
0.05
  9
$TEXTSTYLE
  7
Standard
  9
$CLAYER
  8
0
  9
$CELTYPE
  6
ByLayer
  9
$CECOLOR
 62
   256
  9
$CELTSCALE
 40
1.0
  9
$DISPSILH
 70
     0
  9
$DIMSCALE
 40
1.0
  9
$DIMASZ
 40
0.18
  9
$DIMEXO
 40
0.0625
  9
$DIMDLI
 40
0.38
  9
$DIMRND
 40
0.0
  9
$DIMDLE
 40
0.0
  9
$DIMEXE
 40
0.18
  9
$DIMTP
 40
0.0
  9
$DIMTM
 40
0.0
  9
$DIMTXT
 40
0.18
  9
$DIMCEN
 40
0.09
  9
$DIMTSZ
 40
0.0
  9
$DIMTOL
 70
     0
  9
$DIMLIM
 70
     0
  9
$DIMTIH
 70
     1
  9
$DIMTOH
 70
     1
  9
$DIMSE1
 70
     0
  9
$DIMSE2
 70
     0
  9
$DIMTAD
 70
     0
  9
$DIMZIN
 70
     0
  9
$DIMBLK
  1

  9
$DIMASO
 70
     1
  9
$DIMSHO
 70
     1
  9
$DIMPOST
  1

  9
$DIMAPOST
  1

  9
$DIMALT
 70
     0
  9
$DIMALTD
 70
     2
  9
$DIMALTF
 40
25.4
  9
$DIMLFAC
 40
1.0
  9
$DIMTOFL
 70
     0
  9
$DIMTVP
 40
0.0
  9
$DIMTIX
 70
     0
  9
$DIMSOXD
 70
     0
  9
$DIMSAH
 70
     0
  9
$DIMBLK1
  1

  9
$DIMBLK2
  1

  9
$DIMSTYLE
  2
Standard
  9
$DIMCLRD
 70
     0
  9
$DIMCLRE
 70
     0
  9
$DIMCLRT
 70
     0
  9
$DIMTFAC
 40
1.0
  9
$DIMGAP
 40
0.09
  9
$DIMJUST
 70
     0
  9
$DIMSD1
 70
     0
  9
$DIMSD2
 70
     0
  9
$DIMTOLJ
 70
     1
  9
$DIMTZIN
 70
     0
  9
$DIMALTZ
 70
     0
  9
$DIMALTTZ
 70
     0
  9
$DIMUPT
 70
     0
  9
$DIMDEC
 70
     4
  9
$DIMTDEC
 70
     4
  9
$DIMALTU
 70
     2
  9
$DIMALTTD
 70
     2
  9
$DIMTXSTY
  7
Standard
  9
$DIMAUNIT
 70
     0
  9
$DIMADEC
 70
     0
  9
$DIMALTRND
 40
0.0
  9
$DIMAZIN
 70
     0
  9
$DIMDSEP
 70
    46
  9
$DIMATFIT
 70
     3
  9
$DIMFRAC
 70
     0
  9
$DIMLDRBLK
  1

  9
$DIMLUNIT
 70
     2
  9
$DIMLWD
 70
    -2
  9
$DIMLWE
 70
    -2
  9
$DIMTMOVE
 70
     0
  9
$DIMFXL
 40
1.0
  9
$DIMFXLON
 70
     0
  9
$DIMJOGANG
 40
0.7853981633974483
  9
$DIMTFILL
 70
     0
  9
$DIMTFILLCLR
 70
     0
  9
$DIMARCSYM
 70
     0
  9
$DIMLTYPE
  6

  9
$DIMLTEX1
  6

  9
$DIMLTEX2
  6

  9
$DIMTXTDIRECTION
 70
     0
  9
$LUNITS
 70
     2
  9
$LUPREC
 70
     4
  9
$SKETCHINC
 40
0.1
  9
$FILLETRAD
 40
0.5
  9
$AUNITS
 70
     0
  9
$AUPREC
 70
     0
  9
$MENU
  1
.
  9
$ELEVATION
 40
0.0
  9
$PELEVATION
 40
0.0
  9
$THICKNESS
 40
0.0
  9
$LIMCHECK
 70
     0
  9
$CHAMFERA
 40
0.5
  9
$CHAMFERB
 40
0.5
  9
$CHAMFERC
 40
1.0
  9
$CHAMFERD
 40
0.0
  9
$SKPOLY
 70
     0
  9
$TDCREATE
 40
2460172.775539294
  9
$TDUCREATE
 40
2460172.900539294
  9
$TDUPDATE
 40
2460172.775539317
  9
$TDUUPDATE
 40
2460172.900539317
  9
$TDINDWG
 40
0.0000000116
  9
$TDUSRTIMER
 40
0.0000000116
  9
$USRTIMER
 70
     1
  9
$ANGBASE
 50
0.0
  9
$ANGDIR
 70
     0
  9
$PDMODE
 70
     0
  9
$PDSIZE
 40
0.0
  9
$PLINEWID
 40
0.0
  9
$SPLFRAME
 70
     0
  9
$SPLINETYPE
 70
     6
  9
$SPLINESEGS
 70
     8
  9
$HANDSEED
  5
11F
  9
$SURFTAB1
 70
     6
  9
$SURFTAB2
 70
     6
  9
$SURFTYPE
 70
     6
  9
$SURFU
 70
     6
  9
$SURFV
 70
     6
  9
$UCSBASE
  2

  9
$UCSNAME
  2

  9
$UCSORG
 10
0.0
 20
0.0
 30
0.0
  9
$UCSXDIR
 10
1.0
 20
0.0
 30
0.0
  9
$UCSYDIR
 10
0.0
 20
1.0
 30
0.0
  9
$UCSORTHOREF
  2

  9
$UCSORTHOVIEW
 70
     0
  9
$UCSORGTOP
 10
0.0
 20
0.0
 30
0.0
  9
$UCSORGBOTTOM
 10
0.0
 20
0.0
 30
0.0
  9
$UCSORGLEFT
 10
0.0
 20
0.0
 30
0.0
  9
$UCSORGRIGHT
 10
0.0
 20
0.0
 30
0.0
  9
$UCSORGFRONT
 10
0.0
 20
0.0
 30
0.0
  9
$UCSORGBACK
 10
0.0
 20
0.0
 30
0.0
  9
$PUCSBASE
  2

  9
$PUCSNAME
  2

  9
$PUCSORG
 10
0.0
 20
0.0
 30
0.0
  9
$PUCSXDIR
 10
1.0
 20
0.0
 30
0.0
  9
$PUCSYDIR
 10
0.0
 20
1.0
 30
0.0
  9
$PUCSORTHOREF
  2

  9
$PUCSORTHOVIEW
 70
     0
  9
$PUCSORGTOP
 10
0.0
 20
0.0
 30
0.0
  9
$PUCSORGBOTTOM
 10
0.0
 20
0.0
 30
0.0
  9
$PUCSORGLEFT
 10
0.0
 20
0.0
 30
0.0
  9
$PUCSORGRIGHT
 10
0.0
 20
0.0
 30
0.0
  9
$PUCSORGFRONT
 10
0.0
 20
0.0
 30
0.0
  9
$PUCSORGBACK
 10
0.0
 20
0.0
 30
0.0
  9
$USERI1
 70
     0
  9
$USERI2
 70
     0
  9
$USERI3
 70
     0
  9
$USERI4
 70
     0
  9
$USERI5
 70
     0
  9
$USERR1
 40
0.0
  9
$USERR2
 40
0.0
  9
$USERR3
 40
0.0
  9
$USERR4
 40
0.0
  9
$USERR5
 40
0.0
  9
$WORLDVIEW
 70
     1
  9
$SHADEDGE
 70
     3
  9
$SHADEDIF
 70
    70
  9
$TILEMODE
 70
     1
  9
$MAXACTVP
 70
    64
  9
$PINSBASE
 10
0.0
 20
0.0
 30
0.0
  9
$PLIMCHECK
 70
     0
  9
$PEXTMIN
 10
1.000000000000000E+20
 20
1.000000000000000E+20
 30
1.000000000000000E+20
  9
$PEXTMAX
 10
-1.000000000000000E+20
 20
-1.000000000000000E+20
 30
-1.000000000000000E+20
  9
$PLIMMIN
 10
0.0
 20
0.0
  9
$PLIMMAX
 10
12.0
 20
9.0
  9
$UNITMODE
 70
     0
  9
$VISRETAIN
 70
     1
  9
$PLINEGEN
 70
     0
  9
$PSLTSCALE
 70
     1
  9
$TREEDEPTH
 70
  3020
  9
$CMLSTYLE
  2
Standard
  9
$CMLJUST
 70
     0
  9
$CMLSCALE
 40
1.0
  9
$PROXYGRAPHICS
 70
     1
  9
$MEASUREMENT
 70
     0
  9
$CELWEIGHT
370
    -1
  9
$ENDCAPS
280
     0
  9
$JOINSTYLE
280
     0
  9
$LWDISPLAY
290
     1
  9
$INSUNITS
 70
     4
  9
$HYPERLINKBASE
  1

  9
$STYLESHEET
  1

  9
$XEDIT
290
     1
  9
$CEPSNTYPE
380
     0
  9
$PSTYLEMODE
290
     1
  9
$FINGERPRINTGUID
  2
{2E7FCAC1-EDE9-48BF-8122-5C55B4F234CD}
  9
$VERSIONGUID
  2
{FAEB1C32-E019-11D5-929B-00C0DF256EC4}
  9
$EXTNAMES
290
     1
  9
$PSVPSCALE
 40
0.0
  9
$OLESTARTUP
290
     0
  9
$SORTENTS
280
   127
  9
$INDEXCTL
280
     0
  9
$HIDETEXT
280
     1
  9
$XCLIPFRAME
280
     2
  9
$HALOGAP
280
     0
  9
$OBSCOLOR
 70
   257
  9
$OBSLTYPE
280
     0
  9
$INTERSECTIONDISPLAY
280
     0
  9
$INTERSECTIONCOLOR
 70
   257
  9
$DIMASSOC
280
     2
  9
$PROJECTNAME
  1

  9
$CAMERADISPLAY
290
     0
  9
$LENSLENGTH
 40
50.0
  9
$CAMERAHEIGHT
 40
0.0
  9
$STEPSPERSEC
 40
2.0
  9
$STEPSIZE
 40
6.0
  9
$3DDWFPREC
 40
2.0
  9
$PSOLWIDTH
 40
0.25
  9
$PSOLHEIGHT
 40
4.0
  9
$LOFTANG1
 40
1.570796326794897
  9
$LOFTANG2
 40
1.570796326794897
  9
$LOFTMAG1
 40
0.0
  9
$LOFTMAG2
 40
0.0
  9
$LOFTPARAM
 70
     7
  9
$LOFTNORMALS
280
     1
  9
$LATITUDE
 40
37.795
  9
$LONGITUDE
 40
-122.394
  9
$NORTHDIRECTION
 40
0.0
  9
$TIMEZONE
 70
 -8000
  9
$LIGHTGLYPHDISPLAY
280
     1
  9
$TILEMODELIGHTSYNCH
280
     1
  9
$CMATERIAL
347
3C
  9
$SOLIDHIST
280
     1
  9
$SHOWHIST
280
     1
  9
$DWFFRAME
280
     2
  9
$DGNFRAME
280
     2
  9
$REALWORLDSCALE
290
     1
  9
$INTERFERECOLOR
 62
   256
  9
$CSHADOW
280
     0
  9
$SHADOWPLANELOCATION
 40
0.0
  0
ENDSEC
  0
SECTION
  2
CLASSES
  0
CLASS
  1
ACDBDICTIONARYWDFLT
  2
AcDbDictionaryWithDefault
  3
ObjectDBX Classes
 90
        0
 91
        4
280
     0
281
     0
  0
CLASS
  1
VISUALSTYLE
  2
AcDbVisualStyle
  3
ObjectDBX Classes
 90
     4095
 91
        4
280
     0
281
     0
  0
CLASS
  1
MATERIAL
  2
AcDbMaterial
  3
ObjectDBX Classes
 90
     1153
 91
        4
280
     0
281
     0
  0
CLASS
  1
SUN
  2
AcDbSun
  3
SCENEOE
 90
     1024
 91
        4
280
     0
281
     0
  0
ENDSEC
  0
SECTION
  2
TABLES
  0
TABLE
  2
VPORT
  5
8
330
0
100
AcDbSymbolTable
 70
     1
  0
VPORT
  5
29
330
8
100
AcDbSymbolTableRecord
100
AcDbViewportTableRecord
  2
*Active
 70
     0
 10
0.0
 20
0.0
 11
1.0
 21
1.0
 12
0.0
 22
0.0
 13
0.0
 23
0.0
 14
0.5
 24
0.5
 15
0.5
 25
0.5
 16
0.0
 26
0.0
 36
1.0
 17
107.9499999730125
 27
139.699999965075
 37
0.0
 40
279.39999993015
 41
0.7727272727272728
 42
50.0
 43
0.0
 44
0.0
 50
0.0
 51
0.0
 71
     0
 72
   100
 73
     1
 74
     3
 75
     0
 76
     0
 77
     0
 78
     0
281
     0
 65
     1
110
0.0
120
0.0
130
0.0
111
1.0
121
0.0
131
0.0
112
0.0
122
1.0
132
0.0
 79
     0
146
0.0
 60
     3
 61
     5
292
     1
282
     1
141
0.0
142
0.0
 63
   250
361
3F
  0
ENDTAB
  0
TABLE
  2
LTYPE
  5
5
330
0
100
AcDbSymbolTable
 70
     1
  0
LTYPE
  5
14
330
5
100
AcDbSymbolTableRecord
100
AcDbLinetypeTableRecord
  2
ByBlock
 70
     0
  3

 72
    65
 73
     0
 40
0.0
  0
LTYPE
  5
15
330
5
100
AcDbSymbolTableRecord
100
AcDbLinetypeTableRecord
  2
ByLayer
 70
     0
  3

 72
    65
 73
     0
 40
0.0
  0
LTYPE
  5
16
330
5
100
AcDbSymbolTableRecord
100
AcDbLinetypeTableRecord
  2
Continuous
 70
     0
  3
Solid line
 72
    65
 73
     0
 40
0.0
  0
ENDTAB
  0
TABLE
  2
LAYER
  5
2
330
0
100
AcDbSymbolTable
 70
     2
  0
LAYER
  5
10
330
2
100
AcDbSymbolTableRecord
100
AcDbLayerTableRecord
  2
0
 70
     0
 62
     7
  6
Continuous
370
    -3
390
F
347
3E
  0
LAYER
  5
40
330
2
100
AcDbSymbolTableRecord
100
AcDbLayerTableRecord
  2
Camada 1
 70
     0
 62
     7
  6
Continuous
370
    -3
390
F
347
3E
  0
ENDTAB
  0
TABLE
  2
STYLE
  5
3
330
0
100
AcDbSymbolTable
 70
     1
  0
STYLE
  5
11
330
3
100
AcDbSymbolTableRecord
100
AcDbTextStyleTableRecord
  2
Standard
 70
     0
 40
0.0
 41
1.0
 50
0.0
 71
     0
 42
0.2
  3
txt
  4

  0
ENDTAB
  0
TABLE
  2
VIEW
  5
6
330
0
100
AcDbSymbolTable
 70
     0
  0
ENDTAB
  0
TABLE
  2
UCS
  5
7
330
0
100
AcDbSymbolTable
 70
     0
  0
ENDTAB
  0
TABLE
  2
APPID
  5
9
330
0
100
AcDbSymbolTable
 70
     1
  0
APPID
  5
12
330
9
100
AcDbSymbolTableRecord
100
AcDbRegAppTableRecord
  2
ACAD
 70
     0
  0
ENDTAB
  0
TABLE
  2
DIMSTYLE
  5
A
330
0
100
AcDbSymbolTable
 70
     1
100
AcDbDimStyleTable
  0
DIMSTYLE
105
27
330
A
100
AcDbSymbolTableRecord
100
AcDbDimStyleTableRecord
  2
Standard
 70
     0
178
     0
340
11
  0
ENDTAB
  0
TABLE
  2
BLOCK_RECORD
  5
1
330
0
100
AcDbSymbolTable
 70
    28
  0
BLOCK_RECORD
  5
1F
330
1
100
AcDbSymbolTableRecord
100
AcDbBlockTableRecord
  2
*Model_Space
340
22
 70
     0
280
     1
281
     0
  0
BLOCK_RECORD
  5
1B
330
1
100
AcDbSymbolTableRecord
100
AcDbBlockTableRecord
  2
*Paper_Space
340
1E
 70
     0
280
     1
281
     0
  0
BLOCK_RECORD
  5
23
330
1
100
AcDbSymbolTableRecord
100
AcDbBlockTableRecord
  2
*Paper_Space0
340
26
 70
     0
280
     1
281
     0
  0
BLOCK_RECORD
  5
41
330
1
100
AcDbSymbolTableRecord
100
AcDbBlockTableRecord
  2
block 2
340
0
102
{BLKREFS
331
42
102
}
 70
     0
280
     1
281
     0
  0
BLOCK_RECORD
  5
46
330
1
100
AcDbSymbolTableRecord
100
AcDbBlockTableRecord
  2
block 3
340
0
102
{BLKREFS
331
47
102
}
 70
     0
280
     1
281
     0
  0
BLOCK_RECORD
  5
4B
330
1
100
AcDbSymbolTableRecord
100
AcDbBlockTableRecord
  2
block 4
340
0
102
{BLKREFS
331
4C
102
}
 70
     0
280
     1
281
     0
  0
BLOCK_RECORD
  5
50
330
1
100
AcDbSymbolTableRecord
100
AcDbBlockTableRecord
  2
block 5
340
0
102
{BLKREFS
331
51
102
}
 70
     0
280
     1
281
     0
  0
BLOCK_RECORD
  5
55
330
1
100
AcDbSymbolTableRecord
100
AcDbBlockTableRecord
  2
block 6
340
0
102
{BLKREFS
331
56
102
}
 70
     0
280
     1
281
     0
  0
BLOCK_RECORD
  5
5A
330
1
100
AcDbSymbolTableRecord
100
AcDbBlockTableRecord
  2
block 7
340
0
102
{BLKREFS
331
5B
102
}
 70
     0
280
     1
281
     0
  0
BLOCK_RECORD
  5
6B
330
1
100
AcDbSymbolTableRecord
100
AcDbBlockTableRecord
  2
block 8
340
0
102
{BLKREFS
331
6C
102
}
 70
     0
280
     1
281
     0
  0
BLOCK_RECORD
  5
70
330
1
100
AcDbSymbolTableRecord
100
AcDbBlockTableRecord
  2
block 9
340
0
102
{BLKREFS
331
71
102
}
 70
     0
280
     1
281
     0
  0
BLOCK_RECORD
  5
75
330
1
100
AcDbSymbolTableRecord
100
AcDbBlockTableRecord
  2
block 10
340
0
102
{BLKREFS
331
76
102
}
 70
     0
280
     1
281
     0
  0
BLOCK_RECORD
  5
83
330
1
100
AcDbSymbolTableRecord
100
AcDbBlockTableRecord
  2
block 11
340
0
102
{BLKREFS
331
84
102
}
 70
     0
280
     1
281
     0
  0
BLOCK_RECORD
  5
88
330
1
100
AcDbSymbolTableRecord
100
AcDbBlockTableRecord
  2
block 12
340
0
102
{BLKREFS
331
89
102
}
 70
     0
280
     1
281
     0
  0
BLOCK_RECORD
  5
8D
330
1
100
AcDbSymbolTableRecord
100
AcDbBlockTableRecord
  2
block 13
340
0
102
{BLKREFS
331
8E
102
}
 70
     0
280
     1
281
     0
  0
BLOCK_RECORD
  5
92
330
1
100
AcDbSymbolTableRecord
100
AcDbBlockTableRecord
  2
block 14
340
0
102
{BLKREFS
331
93
102
}
 70
     0
280
     1
281
     0
  0
BLOCK_RECORD
  5
97
330
1
100
AcDbSymbolTableRecord
100
AcDbBlockTableRecord
  2
block 15
340
0
102
{BLKREFS
331
98
102
}
 70
     0
280
     1
281
     0
  0
BLOCK_RECORD
  5
9C
330
1
100
AcDbSymbolTableRecord
100
AcDbBlockTableRecord
  2
block 16
340
0
102
{BLKREFS
331
9D
102
}
 70
     0
280
     1
281
     0
  0
BLOCK_RECORD
  5
B0
330
1
100
AcDbSymbolTableRecord
100
AcDbBlockTableRecord
  2
block 17
340
0
102
{BLKREFS
331
B1
102
}
 70
     0
280
     1
281
     0
  0
BLOCK_RECORD
  5
C3
330
1
100
AcDbSymbolTableRecord
100
AcDbBlockTableRecord
  2
block 18
340
0
102
{BLKREFS
331
C4
102
}
 70
     0
280
     1
281
     0
  0
BLOCK_RECORD
  5
C8
330
1
100
AcDbSymbolTableRecord
100
AcDbBlockTableRecord
  2
block 19
340
0
102
{BLKREFS
331
C9
102
}
 70
     0
280
     1
281
     0
  0
BLOCK_RECORD
  5
CD
330
1
100
AcDbSymbolTableRecord
100
AcDbBlockTableRecord
  2
block 20
340
0
102
{BLKREFS
331
CE
102
}
 70
     0
280
     1
281
     0
  0
BLOCK_RECORD
  5
D2
330
1
100
AcDbSymbolTableRecord
100
AcDbBlockTableRecord
  2
block 21
340
0
102
{BLKREFS
331
D3
102
}
 70
     0
280
     1
281
     0
  0
BLOCK_RECORD
  5
E1
330
1
100
AcDbSymbolTableRecord
100
AcDbBlockTableRecord
  2
block 22
340
0
102
{BLKREFS
331
E2
102
}
 70
     0
280
     1
281
     0
  0
BLOCK_RECORD
  5
EB
330
1
100
AcDbSymbolTableRecord
100
AcDbBlockTableRecord
  2
block 23
340
0
102
{BLKREFS
331
EC
102
}
 70
     0
280
     1
281
     0
  0
BLOCK_RECORD
  5
F0
330
1
100
AcDbSymbolTableRecord
100
AcDbBlockTableRecord
  2
block 24
340
0
102
{BLKREFS
331
F1
102
}
 70
     0
280
     1
281
     0
  0
BLOCK_RECORD
  5
103
330
1
100
AcDbSymbolTableRecord
100
AcDbBlockTableRecord
  2
block 25
340
0
102
{BLKREFS
331
104
102
}
 70
     0
280
     1
281
     0
  0
BLOCK_RECORD
  5
108
330
1
100
AcDbSymbolTableRecord
100
AcDbBlockTableRecord
  2
block 26
340
0
102
{BLKREFS
331
109
102
}
 70
     0
280
     1
281
     0
  0
BLOCK_RECORD
  5
10D
330
1
100
AcDbSymbolTableRecord
100
AcDbBlockTableRecord
  2
block 27
340
0
102
{BLKREFS
331
10E
102
}
 70
     0
280
     1
281
     0
  0
BLOCK_RECORD
  5
112
330
1
100
AcDbSymbolTableRecord
100
AcDbBlockTableRecord
  2
block 28
340
0
102
{BLKREFS
331
113
102
}
 70
     0
280
     1
281
     0
  0
ENDTAB
  0
ENDSEC
  0
SECTION
  2
BLOCKS
  0
BLOCK
  5
20
330
1F
100
AcDbEntity
  8
0
100
AcDbBlockBegin
  2
*Model_Space
 70
     0
 10
0.0
 20
0.0
 30
0.0
  3
*Model_Space
  1

  0
ENDBLK
  5
21
330
1F
100
AcDbEntity
  8
0
100
AcDbBlockEnd
  0
BLOCK
  5
1C
330
1B
100
AcDbEntity
 67
     1
  8
0
100
AcDbBlockBegin
  2
*Paper_Space
 70
     0
 10
0.0
 20
0.0
 30
0.0
  3
*Paper_Space
  1

  0
ENDBLK
  5
1D
330
1B
100
AcDbEntity
 67
     1
  8
0
100
AcDbBlockEnd
  0
BLOCK
  5
24
330
23
100
AcDbEntity
  8
0
100
AcDbBlockBegin
  2
*Paper_Space0
 70
     0
 10
0.0
 20
0.0
 30
0.0
  3
*Paper_Space0
  1

  0
ENDBLK
  5
25
330
23
100
AcDbEntity
  8
0
100
AcDbBlockEnd
  0
BLOCK
  5
43
330
41
100
AcDbEntity
  8
0
100
AcDbBlockBegin
  2
block 2
 70
     0
 10
0.0
 20
0.0
 30
0.0
  3
block 2
  1

  0
SPLINE
  5
45
330
41
100
AcDbEntity
  8
Camada 1
 62
   250
420
  2499364
370
     9
100
AcDbSpline
210
0.0
220
0.0
230
1.0
 70
    11
 71
     3
 72
    17
 73
    13
 74
     0
 42
0.0000000001
 43
0.0000000001
 12
1.0
 22
0.0
 32
0.0
 13
1.0
 23
0.0
 33
0.0
 40
0.0
 40
0.0
 40
0.0
 40
0.0
 40
1.0
 40
1.0
 40
1.0
 40
2.0
 40
2.0
 40
2.0
 40
3.0
 40
3.0
 40
3.0
 40
4.0
 40
4.0
 40
4.0
 40
4.0
 10
-2063.343181196281
 20
547.096985141004
 30
0.0
 10
-1838.441491808062
 20
547.096985141004
 30
0.0
 10
-1656.122584909198
 20
364.7780782421391
 30
0.0
 10
-1656.122584909198
 20
139.8763888539204
 30
0.0
 10
-1656.122584909198
 20
-85.02530053429889
 30
0.0
 10
-1838.441491808062
 20
-267.3442074331634
 30
0.0
 10
-2063.343181196281
 20
-267.3442074331634
 30
0.0
 10
-2288.244905862278
 20
-267.3442074331634
 30
0.0
 10
-2470.563777483365
 20
-85.02530053429889
 30
0.0
 10
-2470.563777483365
 20
139.8763888539204
 30
0.0
 10
-2470.563777483365
 20
364.7780782421391
 30
0.0
 10
-2288.244905862278
 20
547.096985141004
 30
0.0
 10
-2063.343181196281
 20
547.096985141004
 30
0.0
  0
ENDBLK
  5
44
330
41
100
AcDbEntity
  8
0
100
AcDbBlockEnd
  0
BLOCK
  5
48
330
46
100
AcDbEntity
  8
0
100
AcDbBlockBegin
  2
block 3
 70
     0
 10
0.0
 20
0.0
 30
0.0
  3
block 3
  1

  0
SPLINE
  5
4A
330
46
100
AcDbEntity
  8
Camada 1
 62
   250
420
  2499364
370
     9
100
AcDbSpline
210
0.0
220
0.0
230
1.0
 70
    11
 71
     3
 72
    17
 73
    13
 74
     0
 42
0.0000000001
 43
0.0000000001
 12
1.0
 22
0.0
 32
0.0
 13
1.0
 23
0.0
 33
0.0
 40
0.0
 40
0.0
 40
0.0
 40
0.0
 40
1.0
 40
1.0
 40
1.0
 40
2.0
 40
2.0
 40
2.0
 40
3.0
 40
3.0
 40
3.0
 40
4.0
 40
4.0
 40
4.0
 40
4.0
 10
-2063.343181196281
 20
562.7471951370914
 30
0.0
 10
-1829.797871810223
 20
562.7471951370914
 30
0.0
 10
-1640.47237491311
 20
373.4216982399784
 30
0.0
 10
-1640.47237491311
 20
139.8763888539204
 30
0.0
 10
-1640.47237491311
 20
-93.66892053213785
 30
0.0
 10
-1829.797871810223
 20
-282.9944174292518
 30
0.0
 10
-2063.343181196281
 20
-282.9944174292518
 30
0.0
 10
-2296.888384749006
 20
-282.9944174292518
 30
0.0
 10
-2486.213987479453
 20
-93.66892053213785
 30
0.0
 10
-2486.213987479453
 20
139.8763888539204
 30
0.0
 10
-2486.213987479453
 20
373.4216982399784
 30
0.0
 10
-2296.888384749006
 20
562.7471951370914
 30
0.0
 10
-2063.343181196281
 20
562.7471951370914
 30
0.0
  0
ENDBLK
  5
49
330
46
100
AcDbEntity
  8
0
100
AcDbBlockEnd
  0
BLOCK
  5
4D
330
4B
100
AcDbEntity
  8
0
100
AcDbBlockBegin
  2
block 4
 70
     0
 10
0.0
 20
0.0
 30
0.0
  3
block 4
  1

  0
SPLINE
  5
4F
330
4B
100
AcDbEntity
  8
Camada 1
 62
   250
420
  2499364
370
     9
100
AcDbSpline
210
0.0
220
0.0
230
1.0
 70
    11
 71
     3
 72
    50
 73
    46
 74
     0
 42
0.0000000001
 43
0.0000000001
 12
1.0
 22
0.0
 32
0.0
 13
1.0
 23
0.0
 33
0.0
 40
0.0
 40
0.0
 40
0.0
 40
0.0
 40
1.0
 40
1.0
 40
1.0
 40
2.0
 40
2.0
 40
2.0
 40
3.0
 40
3.0
 40
3.0
 40
4.0
 40
4.0
 40
4.0
 40
5.0
 40
5.0
 40
5.0
 40
6.0
 40
6.0
 40
6.0
 40
7.0
 40
7.0
 40
7.0
 40
8.0
 40
8.0
 40
8.0
 40
9.0
 40
9.0
 40
9.0
 40
10.0
 40
10.0
 40
10.0
 40
11.0
 40
11.0
 40
11.0
 40
12.0
 40
12.0
 40
12.0
 40
13.0
 40
13.0
 40
13.0
 40
14.0
 40
14.0
 40
14.0
 40
15.0
 40
15.0
 40
15.0
 40
15.0
 10
-2067.573198417446
 20
64.02369859510536
 30
0.0
 10
-2067.573198417446
 20
64.02369859510536
 30
0.0
 10
-2067.573198417446
 20
223.8866771662512
 30
0.0
 10
-2067.573198417446
 20
223.8866771662512
 30
0.0
 10
-2067.573198417446
 20
223.8866771662512
 30
0.0
 10
-1915.677494288753
 20
223.8866771662512
 30
0.0
 10
-1915.677494288753
 20
223.8866771662512
 30
0.0
 10
-1915.677494288753
 20
223.8866771662512
 30
0.0
 10
-1915.677494288753
 20
313.6527818660317
 30
0.0
 10
-1915.677494288753
 20
313.6527818660317
 30
0.0
 10
-1915.677494288753
 20
313.6527818660317
 30
0.0
 10
-2067.573198417446
 20
313.6527818660317
 30
0.0
 10
-2067.573198417446
 20
313.6527818660317
 30
0.0
 10
-2067.573198417446
 20
313.6527818660317
 30
0.0
 10
-2067.573198417446
 20
470.4417959935012
 30
0.0
 10
-2067.573198417446
 20
470.4417959935012
 30
0.0
 10
-2067.573198417446
 20
470.4417959935012
 30
0.0
 10
-2157.348792839447
 20
433.4111007249808
 30
0.0
 10
-2157.348792839447
 20
433.4111007249808
 30
0.0
 10
-2157.348792839447
 20
433.4111007249808
 30
0.0
 10
-2157.348792839447
 20
313.6527818660317
 30
0.0
 10
-2157.348792839447
 20
313.6527818660317
 30
0.0
 10
-2157.348792839447
 20
313.6527818660317
 30
0.0
 10
-2309.24449696814
 20
313.6527818660317
 30
0.0
 10
-2309.24449696814
 20
313.6527818660317
 30
0.0
 10
-2309.24449696814
 20
313.6527818660317
 30
0.0
 10
-2309.24449696814
 20
223.8866771662512
 30
0.0
 10
-2309.24449696814
 20
223.8866771662512
 30
0.0
 10
-2309.24449696814
 20
223.8866771662512
 30
0.0
 10
-2157.348792839447
 20
223.8866771662512
 30
0.0
 10
-2157.348792839447
 20
223.8866771662512
 30
0.0
 10
-2157.348792839447
 20
223.8866771662512
 30
0.0
 10
-2157.348792839447
 20
-5.240019998689484
 30
0.0
 10
-2157.348792839447
 20
-5.240019998689484
 30
0.0
 10
-2155.653872006537
 20
-7.260519442630002
 30
0.0
 10
-2154.025978951389
 20
-9.396024442095088
 30
0.0
 10
-2152.45548284067
 20
-11.6560247193087
 30
0.0
 10
-2146.824690897633
 20
-19.75731943950483
 30
0.0
 10
-2142.525105898708
 20
-28.73971193725868
 30
0.0
 10
-2139.25968895508
 20
-38.18170332378762
 30
0.0
 10
-2130.851900901627
 20
-6.283818887317542
 30
0.0
 10
-2116.640988960735
 20
23.99580332733425
 30
0.0
 10
-2092.403885633461
 20
46.17388387734535
 30
0.0
 10
-2084.618573968741
 20
53.29847804223031
 30
0.0
 10
-2076.306600359707
 20
59.15910470743274
 30
0.0
 10
-2067.573198417446
 20
64.02369859510536
 30
0.0
  0
ENDBLK
  5
4E
330
4B
100
AcDbEntity
  8
0
100
AcDbBlockEnd
  0
BLOCK
  5
52
330
50
100
AcDbEntity
  8
0
100
AcDbBlockBegin
  2
block 5
 70
     0
 10
0.0
 20
0.0
 30
0.0
  3
block 5
  1

  0
SPLINE
  5
54
330
50
100
AcDbEntity
  8
Camada 1
 62
   250
420
  2499364
370
     9
100
AcDbSpline
210
0.0
220
0.0
230
1.0
 70
    11
 71
     3
 72
   260
 73
   256
 74
     0
 42
0.0000000001
 43
0.0000000001
 12
1.0
 22
0.0
 32
0.0
 13
1.0
 23
0.0
 33
0.0
 40
0.0
 40
0.0
 40
0.0
 40
0.0
 40
1.0
 40
1.0
 40
1.0
 40
2.0
 40
2.0
 40
2.0
 40
3.0
 40
3.0
 40
3.0
 40
4.0
 40
4.0
 40
4.0
 40
5.0
 40
5.0
 40
5.0
 40
6.0
 40
6.0
 40
6.0
 40
7.0
 40
7.0
 40
7.0
 40
8.0
 40
8.0
 40
8.0
 40
9.0
 40
9.0
 40
9.0
 40
10.0
 40
10.0
 40
10.0
 40
11.0
 40
11.0
 40
11.0
 40
12.0
 40
12.0
 40
12.0
 40
13.0
 40
13.0
 40
13.0
 40
14.0
 40
14.0
 40
14.0
 40
15.0
 40
15.0
 40
15.0
 40
16.0
 40
16.0
 40
16.0
 40
17.0
 40
17.0
 40
17.0
 40
18.0
 40
18.0
 40
18.0
 40
19.0
 40
19.0
 40
19.0
 40
20.0
 40
20.0
 40
20.0
 40
21.0
 40
21.0
 40
21.0
 40
22.0
 40
22.0
 40
22.0
 40
23.0
 40
23.0
 40
23.0
 40
24.0
 40
24.0
 40
24.0
 40
25.0
 40
25.0
 40
25.0
 40
26.0
 40
26.0
 40
26.0
 40
27.0
 40
27.0
 40
27.0
 40
28.0
 40
28.0
 40
28.0
 40
29.0
 40
29.0
 40
29.0
 40
30.0
 40
30.0
 40
30.0
 40
31.0
 40
31.0
 40
31.0
 40
32.0
 40
32.0
 40
32.0
 40
33.0
 40
33.0
 40
33.0
 40
34.0
 40
34.0
 40
34.0
 40
35.0
 40
35.0
 40
35.0
 40
36.0
 40
36.0
 40
36.0
 40
37.0
 40
37.0
 40
37.0
 40
38.0
 40
38.0
 40
38.0
 40
39.0
 40
39.0
 40
39.0
 40
40.0
 40
40.0
 40
40.0
 40
41.0
 40
41.0
 40
41.0
 40
42.0
 40
42.0
 40
42.0
 40
43.0
 40
43.0
 40
43.0
 40
44.0
 40
44.0
 40
44.0
 40
45.0
 40
45.0
 40
45.0
 40
46.0
 40
46.0
 40
46.0
 40
47.0
 40
47.0
 40
47.0
 40
48.0
 40
48.0
 40
48.0
 40
49.0
 40
49.0
 40
49.0
 40
50.0
 40
50.0
 40
50.0
 40
51.0
 40
51.0
 40
51.0
 40
52.0
 40
52.0
 40
52.0
 40
53.0
 40
53.0
 40
53.0
 40
54.0
 40
54.0
 40
54.0
 40
55.0
 40
55.0
 40
55.0
 40
56.0
 40
56.0
 40
56.0
 40
57.0
 40
57.0
 40
57.0
 40
58.0
 40
58.0
 40
58.0
 40
59.0
 40
59.0
 40
59.0
 40
60.0
 40
60.0
 40
60.0
 40
61.0
 40
61.0
 40
61.0
 40
62.0
 40
62.0
 40
62.0
 40
63.0
 40
63.0
 40
63.0
 40
64.0
 40
64.0
 40
64.0
 40
65.0
 40
65.0
 40
65.0
 40
66.0
 40
66.0
 40
66.0
 40
67.0
 40
67.0
 40
67.0
 40
68.0
 40
68.0
 40
68.0
 40
69.0
 40
69.0
 40
69.0
 40
70.0
 40
70.0
 40
70.0
 40
71.0
 40
71.0
 40
71.0
 40
72.0
 40
72.0
 40
72.0
 40
73.0
 40
73.0
 40
73.0
 40
74.0
 40
74.0
 40
74.0
 40
75.0
 40
75.0
 40
75.0
 40
76.0
 40
76.0
 40
76.0
 40
77.0
 40
77.0
 40
77.0
 40
78.0
 40
78.0
 40
78.0
 40
79.0
 40
79.0
 40
79.0
 40
80.0
 40
80.0
 40
80.0
 40
81.0
 40
81.0
 40
81.0
 40
82.0
 40
82.0
 40
82.0
 40
83.0
 40
83.0
 40
83.0
 40
84.0
 40
84.0
 40
84.0
 40
85.0
 40
85.0
 40
85.0
 40
85.0
 10
-2063.340605918504
 20
529.7080745897956
 30
0.0
 10
-1848.405594305571
 20
529.7080745897956
 30
0.0
 10
-1674.159371849133
 20
355.4714829666883
 30
0.0
 10
-1674.159371849133
 20
140.5269816315354
 30
0.0
 10
-1674.159371849133
 20
-2.338422777192533
 30
0.0
 10
-1752.769373218369
 20
-99.16212914187551
 30
0.0
 10
-1793.735798485905
 20
-139.8508124650379
 30
0.0
 10
-1793.735798485905
 20
-139.8508124650379
 30
0.0
 10
-1794.003980152505
 20
-140.3775096871279
 30
0.0
 10
-1794.003980152505
 20
-140.3775096871279
 30
0.0
 10
-1797.010881540642
 20
-143.2599157975189
 30
0.0
 10
-1800.065584317656
 20
-146.0944146856983
 30
0.0
 10
-1803.158704594661
 20
-148.881112185002
 30
0.0
 10
-1812.70600014783
 20
-157.6815066272456
 30
0.0
 10
-1818.490003479717
 20
-161.9620063483978
 30
0.0
 10
-1817.877087368759
 20
-161.4640252374114
 30
0.0
 10
-1756.714698772939
 20
-62.38042442884996
 30
0.0
 10
-1743.202886554094
 20
57.30127109678632
 30
0.0
 10
-1813.596587647607
 20
166.4397794028353
 30
0.0
 10
-1814.420076814068
 20
164.0649852367615
 30
0.0
 10
-1815.281983480519
 20
161.7858996817764
 30
0.0
 10
-1816.172606258074
 20
159.5545802378896
 30
0.0
 10
-1816.412001258014
 20
158.9512949602625
 30
0.0
 10
-1816.651396257954
 20
158.3672007937424
 30
0.0
 10
-1816.900386813448
 20
157.7734757938902
 30
0.0
 10
-1817.666373202145
 20
155.9156774610213
 30
0.0
 10
-1818.45169181306
 20
154.1057863503633
 30
0.0
 10
-1819.275180979521
 20
152.3438024619143
 30
0.0
 10
-1819.437987923924
 20
151.9894724620036
 30
0.0
 10
-1819.591199312775
 20
151.6160924620963
 30
0.0
 10
-1819.763601812732
 20
151.2616919066293
 30
0.0
 10
-1820.730777368046
 20
149.2124763515864
 30
0.0
 10
-1821.726704312241
 20
147.2397782965242
 30
0.0
 10
-1822.760872367538
 20
145.3149874636713
 30
0.0
 10
-1823.019493756362
 20
144.8457930193446
 30
0.0
 10
-1823.277974034076
 20
144.3860882972372
 30
0.0
 10
-1823.5365954229
 20
143.9168938529104
 30
0.0
 10
-1824.388800700464
 20
142.3655888532983
 30
0.0
 10
-1825.269792644689
 20
140.8620852425623
 30
0.0
 10
-1826.169975700019
 20
139.387403576265
 30
0.0
 10
-1826.41900153329
 20
138.9660810763706
 30
0.0
 10
-1826.677481811003
 20
138.5446880209193
 30
0.0
 10
-1826.936103199828
 20
138.1329963543551
 30
0.0
 10
-1828.046894588439
 20
136.3613816325765
 30
0.0
 10
-1829.186472643709
 20
134.6376741330075
 30
0.0
 10
-1830.364291810082
 20
132.9809944111991
 30
0.0
 10
-1830.575005976696
 20
132.6842024668295
 30
0.0
 10
-1830.785684865532
 20
132.4064958002326
 30
0.0
 10
-1830.996293198812
 20
132.1095980225286
 30
0.0
 10
-1832.011375976337
 20
130.7115044117667
 30
0.0
 10
-1833.035983753858
 20
129.3612827454388
 30
0.0
 10
-1834.089378198039
 20
128.0397771902126
 30
0.0
 10
-1834.405396531294
 20
127.6471708014212
 30
0.0
 10
-1834.711784031217
 20
127.2544938570754
 30
0.0
 10
-1835.027872920027
 20
126.8714830238386
 30
0.0
 10
-1836.291875697489
 20
125.3392985797761
 30
0.0
 10
-1837.575104863835
 20
123.8454963579276
 30
0.0
 10
-1838.886979585729
 20
122.4185808027282
 30
0.0
 10
-1838.886979585729
 20
122.4185808027282
 30
0.0
 10
-1838.953972085712
 20
122.3419927471932
 30
0.0
 10
-1838.953972085712
 20
122.3419927471932
 30
0.0
 10
-1840.265987918717
 20
120.9343035808786
 30
0.0
 10
-1841.596983196162
 20
119.5936774701021
 30
0.0
 10
-1842.956800418045
 20
118.2818027482087
 30
0.0
 10
-1843.282379029074
 20
117.9752741371738
 30
0.0
 10
-1843.598397362329
 20
117.6688866372496
 30
0.0
 10
-1843.923975973359
 20
117.3624991373266
 30
0.0
 10
-1845.207205139704
 20
116.1558933042957
 30
0.0
 10
-1846.499994583825
 20
114.9971946934737
 30
0.0
 10
-1847.821500139051
 20
113.8767724715317
 30
0.0
 10
-1847.936399861244
 20
113.7713977493354
 30
0.0
 10
-1848.051299583438
 20
113.6660935826942
 30
0.0
 10
-1848.175794861185
 20
113.5702791382743
 30
0.0
 10
-1849.640880971929
 20
112.3445880274706
 30
0.0
 10
-1851.134789027111
 20
111.1666983055426
 30
0.0
 10
-1852.647782360066
 20
110.0367863613805
 30
0.0
 10
-1852.935084582217
 20
109.8260721947668
 30
0.0
 10
-1853.23198235992
 20
109.6153933059305
 30
0.0
 10
-1853.528774304291
 20
109.404679139316
 30
0.0
 10
-1854.850279859516
 20
108.4375741395575
 30
0.0
 10
-1856.2005720814
 20
107.4990794175707
 30
0.0
 10
-1857.560389303283
 20
106.5990021955721
 30
0.0
 10
-1857.79018874767
 20
106.4456849733881
 30
0.0
 10
-1858.019988192057
 20
106.2924735845385
 30
0.0
 10
-1858.249787636444
 20
106.1392974734651
 30
0.0
 10
-1859.848999858266
 20
105.1050941403904
 30
0.0
 10
-1861.467403191195
 20
104.1092024739732
 30
0.0
 10
-1863.11448735745
 20
103.1610769186556
 30
0.0
 10
-1863.2676987463
 20
103.0749991408985
 30
0.0
 10
-1863.420874857373
 20
102.9982699742501
 30
0.0
 10
-1863.56449069067
 20
102.9121921964956
 30
0.0
 10
-1865.096675134732
 20
102.0406899744893
 30
0.0
 10
-1866.638490412124
 20
101.2172008080296
 30
0.0
 10
-1868.19939096729
 20
100.4127969193414
 30
0.0
 10
-1868.43878596723
 20
100.2883016415955
 30
0.0
 10
-1868.67818096717
 20
100.1637710860707
 30
0.0
 10
-1868.927100967108
 20
100.0488713638774
 30
0.0
 10
-1872.374480688468
 20
98.31560358653265
 30
0.0
 10
-1875.92730568758
 20
96.74517803136958
 30
0.0
 10
-1879.546982075564
 20
95.32789330950106
 30
0.0
 10
-1879.546982075564
 20
95.32789330950106
 30
0.0
 10
-1880.083274853207
 20
95.11717914288855
 30
0.0
 10
-1880.083274853207
 20
95.11717914288855
 30
0.0
 10
-1883.808396518943
 20
93.67128414324961
 30
0.0
 10
-1887.619595962435
 20
92.36889914357567
 30
0.0
 10
-1891.497893739243
 20
91.21020053275367
 30
0.0
 10
-1891.497893739243
 20
91.21020053275367
 30
0.0
 10
-1891.526680405902
 20
91.2005696994222
 30
0.0
 10
-1891.526680405902
 20
91.2005696994222
 30
0.0
 10
-1946.598678169912
 20
74.65317525911495
 30
0.0
 10
-2015.95817593035
 20
83.89408331236028
 30
0.0
 10
-2067.563602861893
 20
51.90997998702302
 30
0.0
 10
-2103.617491741769
 20
29.56898665927453
 30
0.0
 10
-2131.014672568253
 20
-12.87212027455978
 30
0.0
 10
-2138.809579788526
 20
-98.32900914208501
 30
0.0
 10
-2139.460701732808
 20
-105.520595806953
 30
0.0
 10
-2139.594792566107
 20
-109.0829105282849
 30
0.0
 10
-2139.920371177137
 20
-99.32490080850282
 30
0.0
 10
-2141.098296176843
 20
-63.99882776177767
 30
0.0
 10
-2147.533386175234
 20
-40.21179832327952
 30
0.0
 10
-2157.348792839447
 20
-23.3675061052688
 30
0.0
 10
-2158.938480061272
 20
-20.63831138372871
 30
0.0
 10
-2160.61428033863
 20
-18.10071027325274
 30
0.0
 10
-2162.376299504856
 20
-15.71621471829252
 30
0.0
 10
-2162.376299504856
 20
-15.71621471829252
 30
0.0
 10
-2162.433696449286
 20
-15.62999582942533
 30
0.0
 10
-2162.433696449286
 20
-15.62999582942533
 30
0.0
 10
-2163.017896449141
 20
-14.85441388517464
 30
0.0
 10
-2163.601990615661
 20
-14.08832166314341
 30
0.0
 10
-2164.195680337735
 20
-13.34131471888626
 30
0.0
 10
-2164.195680337735
 20
-13.34131471888626
 30
0.0
 10
-2164.243587559945
 20
-13.28391777445653
 30
0.0
 10
-2164.243587559945
 20
-13.28391777445653
 30
0.0
 10
-2188.222104776173
 20
16.71789194026523
 30
0.0
 10
-2225.884801433423
 20
19.50458943956825
 30
0.0
 10
-2259.132872258445
 20
39.71007776785036
 30
0.0
 10
-2259.132872258445
 20
39.71007776785036
 30
0.0
 10
-2259.381898091716
 20
39.86328915670124
 30
0.0
 10
-2259.381898091716
 20
39.86328915670124
 30
0.0
 10
-2260.358704480361
 20
40.45697887877561
 30
0.0
 10
-2261.325774202342
 20
41.0698949897322
 30
0.0
 10
-2262.302580590986
 20
41.69230082291147
 30
0.0
 10
-2262.302580590986
 20
41.69230082291147
 30
0.0
 10
-2262.589882813137
 20
41.88389443397303
 30
0.0
 10
-2262.589882813137
 20
41.88389443397303
 30
0.0
 10
-2264.658289479286
 20
43.23408082252531
 30
0.0
 10
-2266.717171145438
 20
44.66089054439018
 30
0.0
 10
-2268.737705867155
 20
46.17388387734535
 30
0.0
 10
-2268.890881978228
 20
46.27929387731982
 30
0.0
 10
-2269.044093367078
 20
46.40378915506642
 30
0.0
 10
-2269.197375311484
 20
46.51868887725907
 30
0.0
 10
-2270.020899755723
 20
47.14109471043706
 30
0.0
 10
-2270.853984477737
 20
47.78269165472103
 30
0.0
 10
-2271.667983921978
 20
48.43388415455961
 30
0.0
 10
-2271.667983921978
 20
48.43388415455961
 30
0.0
 10
-2272.319176421815
 20
48.96058137664966
 30
0.0
 10
-2272.319176421815
 20
48.96058137664966
 30
0.0
 10
-2273.16189197716
 20
49.64048998758929
 30
0.0
 10
-2273.994976699174
 20
50.33948387630427
 30
0.0
 10
-2274.818501143413
 20
51.04817915390577
 30
0.0
 10
-2274.952591976712
 20
51.16307887609842
 30
0.0
 10
-2275.086576976679
 20
51.2683830427384
 30
0.0
 10
-2275.211072254426
 20
51.38328276493233
 30
0.0
 10
-2276.187878643071
 20
52.22599832027743
 30
0.0
 10
-2277.155089476162
 20
53.09739470894863
 30
0.0
 10
-2278.1127047537
 20
53.98798220872518
 30
0.0
 10
-2278.1127047537
 20
53.98798220872518
 30
0.0
 10
-2278.399971698072
 20
54.2656888753233
 30
0.0
 10
-2278.399971698072
 20
54.2656888753233
 30
0.0
 10
-2279.223496142311
 20
55.04137665290591
 30
0.0
 10
-2280.037495586553
 20
55.8361849860414
 30
0.0
 10
-2280.85138919746
 20
56.65018443028223
 30
0.0
 10
-2281.0907841974
 20
56.89910443021913
 30
0.0
 10
-2281.33017919734
 20
57.1384994301603
 30
0.0
 10
-2281.569680030614
 20
57.38748998565352
 30
0.0
 10
-2282.268673919328
 20
58.09607942992053
 30
0.0
 10
-2282.967773641376
 20
58.82389526307234
 30
0.0
 10
-2283.647682252316
 20
59.57090220732949
 30
0.0
 10
-2283.887077252256
 20
59.8197869294895
 30
0.0
 10
-2284.116876696644
 20
60.06877748498336
 30
0.0
 10
-2284.34667614103
 20
60.31780331825409
 30
0.0
 10
-2286.127886418363
 20
62.27127498443213
 30
0.0
 10
-2287.870679195705
 20
64.33968165058225
 30
0.0
 10
-2289.575195584168
 20
66.51349831670491
 30
0.0
 10
-2289.814590584108
 20
66.81988581662978
 30
0.0
 10
-2290.053985584048
 20
67.13597470543858
 30
0.0
 10
-2290.293486417322
 20
67.44239748313905
 30
0.0
 10
-2290.915892250499
 20
68.25639692738116
 30
0.0
 10
-2291.528773083679
 20
69.07988609384147
 30
0.0
 10
-2292.141583361304
 20
69.91297081585573
 30
0.0
 10
-2292.400204750128
 20
70.26730081576707
 30
0.0
 10
-2292.658685027841
 20
70.63119109345358
 30
0.0
 10
-2292.917271138888
 20
70.98548581558741
 30
0.0
 10
-2293.55890336095
 20
71.8952997042481
 30
0.0
 10
-2294.190904749681
 20
72.82409303734903
 30
0.0
 10
-2294.822906138412
 20
73.76258775933776
 30
0.0
 10
-2295.004904193921
 20
74.04029442593523
 30
0.0
 10
-2295.196391971652
 20
74.30837025920123
 30
0.0
 10
-2295.378284193828
 20
74.58607692579807
 30
0.0
 10
-2296.182688082516
 20
75.80227831438363
 30
0.0
 10
-2296.97749641565
 20
77.05679136962547
 30
0.0
 10
-2297.753184193235
 20
78.33998525819342
 30
0.0
 10
-2297.925586693192
 20
78.61769192479026
 30
0.0
 10
-2298.088393637595
 20
78.90499414694041
 30
0.0
 10
-2298.251200581999
 20
79.18270081353853
 30
0.0
 10
-2298.863975581846
 20
80.19767775772785
 30
0.0
 10
-2299.46729613725
 20
81.24147664635653
 30
0.0
 10
-2300.070581414877
 20
82.3045019238681
 30
0.0
 10
-2300.309976414818
 20
82.73538470153957
 30
0.0
 10
-2300.559002248088
 20
83.18549386809326
 30
0.0
 10
-2300.798397248029
 20
83.63549720131311
 30
0.0
 10
-2301.334690025672
 20
84.6026727566273
 30
0.0
 10
-2301.86128141443
 20
85.60819525637594
 30
0.0
 10
-2302.387978636521
 20
86.61368247834706
 30
0.0
 10
-2302.617883914241
 20
87.04460053379412
 30
0.0
 10
-2302.838087803074
 20
87.48507886701826
 30
0.0
 10
-2303.067887247461
 20
87.92559247801928
 30
0.0
 10
-2303.795703080613
 20
89.35240219988414
 30
0.0
 10
-2304.513888080433
 20
90.82718969951495
 30
0.0
 10
-2305.212987802481
 20
92.33058747691874
 30
0.0
 10
-2336.363900572471
 20
15.70287971829776
 30
0.0
 10
-2369.286498619796
 20
-50.59231970957406
 30
0.0
 10
-2336.871477239011
 20
-136.2790080214859
 30
0.0
 10
-2337.972673072069
 20
-135.1968974662009
 30
0.0
 10
-2339.064379182907
 20
-134.1052266331407
 30
0.0
 10
-2340.156085293745
 20
-133.0039249667491
 30
0.0
 10
-2340.156085293745
 20
-133.0039249667491
 30
0.0
 10
-2340.242198349279
 20
-132.9178119112151
 30
0.0
 10
-2340.242198349279
 20
-132.9178119112151
 30
0.0
 10
-2341.29559279346
 20
-131.8548219114804
 30
0.0
 10
-2342.329796126535
 20
-130.7823069117475
 30
0.0
 10
-2343.36399945961
 20
-129.7098271897946
 30
0.0
 10
-2343.36399945961
 20
-129.7098271897946
 30
0.0
 10
-2343.612990015103
 20
-129.4608013565239
 30
0.0
 10
-2343.612990015103
 20
-129.4608013565239
 30
0.0
 10
-2344.551484737091
 20
-128.4745052456587
 30
0.0
 10
-2345.499504459076
 20
-127.4881033014604
 30
0.0
 10
-2346.437999181063
 20
-126.5018071905965
 30
0.0
 10
-2346.437999181063
 20
-126.5018071905965
 30
0.0
 10
-2347.05077418091
 20
-125.8410191352053
 30
0.0
 10
-2347.05077418091
 20
-125.8410191352053
 30
0.0
 10
-2347.893489736255
 20
-124.9505021909838
 30
0.0
 10
-2348.717084736049
 20
-124.0503191356539
 30
0.0
 10
-2349.55020473584
 20
-123.1596963580986
 30
0.0
 10
-2349.55020473584
 20
-123.1596963580986
 30
0.0
 10
-2350.344977791198
 20
-122.288299969428
 30
0.0
 10
-2350.344977791198
 20
-122.288299969428
 30
0.0
 10
-2351.091878902122
 20
-121.4743005251865
 30
0.0
 10
-2351.8483755686
 20
-120.6412158031729
 30
0.0
 10
-2352.595382512857
 20
-119.8177266367113
 30
0.0
 10
-2414.705790830663
 20
-50.86039554283941
 30
0.0
 10
-2452.521698876765
 20
40.41870248989619
 30
0.0
 10
-2452.521698876765
 20
140.5269816315354
 30
0.0
 10
-2452.521698876765
 20
355.4714829666883
 30
0.0
 10
-2278.285071975879
 20
529.7080745897956
 30
0.0
 10
-2063.340605918504
 20
529.7080745897956
 30
0.0
  0
ENDBLK
  5
53
330
50
100
AcDbEntity
  8
0
100
AcDbBlockEnd
  0
BLOCK
  5
57
330
55
100
AcDbEntity
  8
0
100
AcDbBlockBegin
  2
block 6
 70
     0
 10
0.0
 20
0.0
 30
0.0
  3
block 6
  1

  0
SPLINE
  5
59
330
55
100
AcDbEntity
  8
Camada 1
 62
   250
420
  2499364
370
     9
100
AcDbSpline
210
0.0
220
0.0
230
1.0
 70
    11
 71
     3
 72
    26
 73
    22
 74
     0
 42
0.0000000001
 43
0.0000000001
 12
1.0
 22
0.0
 32
0.0
 13
1.0
 23
0.0
 33
0.0
 40
0.0
 40
0.0
 40
0.0
 40
0.0
 40
1.0
 40
1.0
 40
1.0
 40
2.0
 40
2.0
 40
2.0
 40
3.0
 40
3.0
 40
3.0
 40
4.0
 40
4.0
 40
4.0
 40
5.0
 40
5.0
 40
5.0
 40
6.0
 40
6.0
 40
6.0
 40
7.0
 40
7.0
 40
7.0
 40
7.0
 10
-2275.166904476659
 20
-186.009315231275
 30
0.0
 10
-2275.166904476659
 20
-186.009315231275
 30
0.0
 10
-2139.427505343927
 20
-295.7643027038363
 30
0.0
 10
-1937.040587616746
 20
-227.6979118875193
 30
0.0
 10
-1937.040587616746
 20
-227.6979118875193
 30
0.0
 10
-2045.429372589648
 20
-226.9359118877105
 30
0.0
 10
-2100.964779242432
 20
-186.4798149533793
 30
0.0
 10
-2100.964779242432
 20
-186.4798149533793
 30
0.0
 10
-1917.193803732819
 20
-140.9037130203301
 30
0.0
 10
-1879.128199575668
 20
15.16648110731927
 30
0.0
 10
-1879.128199575668
 20
15.16648110731927
 30
0.0
 10
-1960.793080110808
 20
-157.1233063496074
 30
0.0
 10
-2137.881703677647
 20
-163.8411124590393
 30
0.0
 10
-2137.881703677647
 20
-163.8411124590393
 30
0.0
 10
-2255.704683648191
 20
-120.2886144143729
 30
0.0
 10
-2283.74328503007
 20
-18.79621166196763
 30
0.0
 10
-2283.74328503007
 20
-18.79621166196763
 30
0.0
 10
-2278.214798642563
 20
-119.1035280257796
 30
0.0
 10
-2169.614100058603
 20
-173.6010977343778
 30
0.0
 10
-2210.701598659442
 20
-190.3032205079802
 30
0.0
 10
-2228.974499765985
 20
-191.0797196744516
 30
0.0
 10
-2275.166904476659
 20
-186.009315231275
 30
0.0
  0
ENDBLK
  5
58
330
55
100
AcDbEntity
  8
0
100
AcDbBlockEnd
  0
BLOCK
  5
5C
330
5A
100
AcDbEntity
  8
0
100
AcDbBlockBegin
  2
block 7
 70
     0
 10
0.0
 20
0.0
 30
0.0
  3
block 7
  1

  0
POLYLINE
  5
5E
330
5A
100
AcDbEntity
  8
Camada 1
 62
   250
420
  2499364
370
     9
100
AcDb2dPolyline
 66
     1
 10
0.0
 20
0.0
 30
0.0
  0
VERTEX
  5
5F
330
5E
100
AcDbEntity
  8
Camada 1
 62
   250
420
  2499364
370
     9
100
AcDbVertex
100
AcDb2dVertex
 10
-1148.634183369403
 20
-139.2858035762883
 30
0.0
  0
VERTEX
  5
60
330
5E
100
AcDbEntity
  8
Camada 1
 62
   250
420
  2499364
370
     9
100
AcDbVertex
100
AcDb2dVertex
 10
-1148.634183369403
 20
160.1579007932944
 30
0.0
  0
VERTEX
  5
61
330
5E
100
AcDbEntity
  8
Camada 1
 62
   250
420
  2499364
370
     9
100
AcDbVertex
100
AcDb2dVertex
 10
-1247.736975289072
 20
160.1579007932941
 30
0.0
  0
VERTEX
  5
62
330
5E
100
AcDbEntity
  8
Camada 1
 62
   250
420
  2499364
370
     9
100
AcDbVertex
100
AcDb2dVertex
 10
-1247.736975289072
 20
-17.23880360680037
 30
0.0
  0
VERTEX
  5
63
330
5E
100
AcDbEntity
  8
Camada 1
 62
   250
420
  2499364
370
     9
100
AcDbVertex
100
AcDb2dVertex
 10
-1391.808985530832
 20
160.1579007932941
 30
0.0
  0
VERTEX
  5
64
330
5E
100
AcDbEntity
  8
Camada 1
 62
   250
420
  2499364
370
     9
100
AcDbVertex
100
AcDb2dVertex
 10
-1529.98209271851
 20
160.1579007932941
 30
0.0
  0
VERTEX
  5
65
330
5E
100
AcDbEntity
  8
Camada 1
 62
   250
420
  2499364
370
     9
100
AcDbVertex
100
AcDb2dVertex
 10
-1529.98209271851
 20
-139.285803576289
 30
0.0
  0
VERTEX
  5
66
330
5E
100
AcDbEntity
  8
Camada 1
 62
   250
420
  2499364
370
     9
100
AcDbVertex
100
AcDb2dVertex
 10
-1430.879300798842
 20
-139.2858035762883
 30
0.0
  0
VERTEX
  5
67
330
5E
100
AcDbEntity
  8
Camada 1
 62
   250
420
  2499364
370
     9
100
AcDbVertex
100
AcDb2dVertex
 10
-1430.879300798842
 20
41.08898026750499
 30
0.0
  0
VERTEX
  5
68
330
5E
100
AcDbEntity
  8
Camada 1
 62
   250
420
  2499364
370
     9
100
AcDbVertex
100
AcDb2dVertex
 10
-1284.250498335499
 20
-139.2858035762883
 30
0.0
  0
VERTEX
  5
69
330
5E
100
AcDbEntity
  8
Camada 1
 62
   250
420
  2499364
370
     9
100
AcDbVertex
100
AcDb2dVertex
 10
-1148.634183369403
 20
-139.2858035762883
 30
0.0
  0
SEQEND
  5
6A
330
5E
100
AcDbEntity
  8
Camada 1
 62
   250
420
  2499364
370
     9
  0
ENDBLK
  5
5D
330
5A
100
AcDbEntity
  8
0
100
AcDbBlockEnd
  0
BLOCK
  5
6D
330
6B
100
AcDbEntity
  8
0
100
AcDbBlockBegin
  2
block 8
 70
     0
 10
0.0
 20
0.0
 30
0.0
  3
block 8
  1

  0
SPLINE
  5
6F
330
6B
100
AcDbEntity
  8
Camada 1
 62
   250
420
  2499364
370
     9
100
AcDbSpline
210
0.0
220
0.0
230
1.0
 70
    11
 71
     3
 72
    17
 73
    13
 74
     0
 42
0.0000000001
 43
0.0000000001
 12
1.0
 22
0.0
 32
0.0
 13
1.0
 23
0.0
 33
0.0
 40
0.0
 40
0.0
 40
0.0
 40
0.0
 40
1.0
 40
1.0
 40
1.0
 40
2.0
 40
2.0
 40
2.0
 40
3.0
 40
3.0
 40
3.0
 40
4.0
 40
4.0
 40
4.0
 40
4.0
 10
-928.441971480007
 20
164.6969866254922
 30
0.0
 10
-1062.64107227979
 20
164.6969866254922
 30
0.0
 10
-1127.078473374792
 20
117.6688866372496
 30
0.0
 10
-1127.078473374792
 20
17.64679110669936
 30
0.0
 10
-1127.078473374792
 20
-89.41371497764676
 30
0.0
 10
-1068.252673111721
 20
-140.5689974648563
 30
0.0
 10
-925.7415987029037
 20
-140.5689974648563
 30
0.0
 10
-786.9267887376076
 20
-140.5689974648563
 30
0.0
 10
-720.7945020874738
 20
-104.3332163628043
 30
0.0
 10
-720.7945020874738
 20
12.03519027476958
 30
0.0
 10
-720.7945020874738
 20
130.9604949672592
 30
0.0
 10
-798.7915873457517
 20
164.6969866254922
 30
0.0
 10
-928.441971480007
 20
164.6969866254922
 30
0.0
  0
ENDBLK
  5
6E
330
6B
100
AcDbEntity
  8
0
100
AcDbBlockEnd
  0
BLOCK
  5
72
330
70
100
AcDbEntity
  8
0
100
AcDbBlockBegin
  2
block 9
 70
     0
 10
0.0
 20
0.0
 30
0.0
  3
block 9
  1

  0
SPLINE
  5
74
330
70
100
AcDbEntity
  8
Camada 1
 62
   250
420
  2499364
370
     9
100
AcDbSpline
210
0.0
220
0.0
230
1.0
 70
    11
 71
     3
 72
    17
 73
    13
 74
     0
 42
0.0000000001
 43
0.0000000001
 12
1.0
 22
0.0
 32
0.0
 13
1.0
 23
0.0
 33
0.0
 40
0.0
 40
0.0
 40
0.0
 40
0.0
 40
1.0
 40
1.0
 40
1.0
 40
2.0
 40
2.0
 40
2.0
 40
3.0
 40
3.0
 40
3.0
 40
4.0
 40
4.0
 40
4.0
 40
4.0
 10
-924.7551967587061
 20
-62.1313985955773
 30
0.0
 10
-988.4743775761099
 20
-62.1313985955773
 30
0.0
 10
-1017.815505068774
 20
-31.22940582552568
 30
0.0
 10
-1017.815505068774
 20
12.03519027476958
 30
0.0
 10
-1017.815505068774
 20
58.63237220756453
 30
0.0
 10
-988.4073850761258
 20
86.26898331176655
 30
0.0
 10
-926.0287950917207
 20
86.26898331176655
 30
0.0
 10
-869.9034734390856
 20
86.26898331176655
 30
0.0
 10
-830.0478748379379
 20
61.76380415122622
 30
0.0
 10
-830.0478748379379
 20
12.03519027476958
 30
0.0
 10
-830.0478748379379
 20
-39.33080637905564
 30
0.0
 10
-866.714573995438
 20
-62.1313985955773
 30
0.0
 10
-924.7551967587061
 20
-62.1313985955773
 30
0.0
  0
ENDBLK
  5
73
330
70
100
AcDbEntity
  8
0
100
AcDbBlockEnd
  0
BLOCK
  5
77
330
75
100
AcDbEntity
  8
0
100
AcDbBlockBegin
  2
block 10
 70
     0
 10
0.0
 20
0.0
 30
0.0
  3
block 10
  1

  0
POLYLINE
  5
79
330
75
100
AcDbEntity
  8
Camada 1
 62
   250
420
  2499364
370
     9
100
AcDb2dPolyline
 66
     1
 10
0.0
 20
0.0
 30
0.0
  0
VERTEX
  5
7A
330
79
100
AcDbEntity
  8
Camada 1
 62
   250
420
  2499364
370
     9
100
AcDbVertex
100
AcDb2dVertex
 10
-431.4151949375967
 20
160.1579007932941
 30
0.0
  0
VERTEX
  5
7B
330
79
100
AcDbEntity
  8
Camada 1
 62
   250
420
  2499364
370
     9
100
AcDbVertex
100
AcDb2dVertex
 10
-529.5219893575138
 20
-51.90422970924563
 30
0.0
  0
VERTEX
  5
7C
330
79
100
AcDbEntity
  8
Camada 1
 62
   250
420
  2499364
370
     9
100
AcDbVertex
100
AcDb2dVertex
 10
-628.1938984995123
 20
160.1579007932944
 30
0.0
  0
VERTEX
  5
7D
330
79
100
AcDbEntity
  8
Camada 1
 62
   250
420
  2499364
370
     9
100
AcDbVertex
100
AcDb2dVertex
 10
-741.6511829155938
 20
160.1579007932941
 30
0.0
  0
VERTEX
  5
7E
330
79
100
AcDbEntity
  8
Camada 1
 62
   250
420
  2499364
370
     9
100
AcDbVertex
100
AcDb2dVertex
 10
-594.237097119113
 20
-139.285803576289
 30
0.0
  0
VERTEX
  5
7F
330
79
100
AcDbEntity
  8
Camada 1
 62
   250
420
  2499364
370
     9
100
AcDbVertex
100
AcDb2dVertex
 10
-464.5195793737645
 20
-139.2858035762883
 30
0.0
  0
VERTEX
  5
80
330
79
100
AcDbEntity
  8
Camada 1
 62
   250
420
  2499364
370
     9
100
AcDbVertex
100
AcDb2dVertex
 10
-317.9578752437383
 20
160.1579007932944
 30
0.0
  0
VERTEX
  5
81
330
79
100
AcDbEntity
  8
Camada 1
 62
   250
420
  2499364
370
     9
100
AcDbVertex
100
AcDb2dVertex
 10
-431.4151949375967
 20
160.1579007932941
 30
0.0
  0
SEQEND
  5
82
330
79
100
AcDbEntity
  8
Camada 1
 62
   250
420
  2499364
370
     9
  0
ENDBLK
  5
78
330
75
100
AcDbEntity
  8
0
100
AcDbBlockEnd
  0
BLOCK
  5
85
330
83
100
AcDbEntity
  8
0
100
AcDbBlockBegin
  2
block 11
 70
     0
 10
0.0
 20
0.0
 30
0.0
  3
block 11
  1

  0
SPLINE
  5
87
330
83
100
AcDbEntity
  8
Camada 1
 62
   250
420
  2499364
370
     9
100
AcDbSpline
210
0.0
220
0.0
230
1.0
 70
    11
 71
     3
 72
    17
 73
    13
 74
     0
 42
0.0000000001
 43
0.0000000001
 12
1.0
 22
0.0
 32
0.0
 13
1.0
 23
0.0
 33
0.0
 40
0.0
 40
0.0
 40
0.0
 40
0.0
 40
1.0
 40
1.0
 40
1.0
 40
2.0
 40
2.0
 40
2.0
 40
3.0
 40
3.0
 40
3.0
 40
4.0
 40
4.0
 40
4.0
 40
4.0
 10
-140.1110969548664
 20
164.6969866254922
 30
0.0
 10
-274.3100919213167
 20
164.6969866254922
 30
0.0
 10
-338.7474930163187
 20
117.6688866372496
 30
0.0
 10
-338.7474930163187
 20
17.64679110669936
 30
0.0
 10
-338.7474930163187
 20
-89.41371497764676
 30
0.0
 10
-279.9216927532478
 20
-140.5689974648563
 30
0.0
 10
-137.4105830666524
 20
-140.5689974648563
 30
0.0
 10
1.40412106531025
 20
-140.5689974648563
 30
0.0
 10
67.53651354877788
 20
-104.3332163628043
 30
0.0
 10
67.53651354877788
 20
12.03519027476958
 30
0.0
 10
67.53651354877788
 20
130.9604949672592
 30
0.0
 10
-10.46057170950136
 20
164.6969866254922
 30
0.0
 10
-140.1110969548664
 20
164.6969866254922
 30
0.0
  0
ENDBLK
  5
86
330
83
100
AcDbEntity
  8
0
100
AcDbBlockEnd
  0
BLOCK
  5
8A
330
88
100
AcDbEntity
  8
0
100
AcDbBlockBegin
  2
block 12
 70
     0
 10
0.0
 20
0.0
 30
0.0
  3
block 12
  1

  0
SPLINE
  5
8C
330
88
100
AcDbEntity
  8
Camada 1
 62
   250
420
  2499364
370
     9
100
AcDbSpline
210
0.0
220
0.0
230
1.0
 70
    11
 71
     3
 72
    17
 73
    13
 74
     0
 42
0.0000000001
 43
0.0000000001
 12
1.0
 22
0.0
 32
0.0
 13
1.0
 23
0.0
 33
0.0
 40
0.0
 40
0.0
 40
0.0
 40
0.0
 40
1.0
 40
1.0
 40
1.0
 40
2.0
 40
2.0
 40
2.0
 40
3.0
 40
3.0
 40
3.0
 40
4.0
 40
4.0
 40
4.0
 40
4.0
 10
-136.4242869557885
 20
-62.1313985955773
 30
0.0
 10
-200.1435030509695
 20
-62.1313985955773
 30
0.0
 10
-229.4844894325225
 20
-31.22940582552568
 30
0.0
 10
-229.4844894325225
 20
12.03519027476958
 30
0.0
 10
-229.4844894325225
 20
58.63237220756453
 30
0.0
 10
-200.0764047176539
 20
86.26898331176655
 30
0.0
 10
-137.6978852888035
 20
86.26898331176655
 30
0.0
 10
-81.57249308061242
 20
86.26898331176655
 30
0.0
 10
-41.71689447946433
 20
61.76380415122622
 30
0.0
 10
-41.71689447946433
 20
12.03519027476958
 30
0.0
 10
-41.71689447946433
 20
-39.33080637905564
 30
0.0
 10
-78.38369947029852
 20
-62.1313985955773
 30
0.0
 10
-136.4242869557885
 20
-62.1313985955773
 30
0.0
  0
ENDBLK
  5
8B
330
88
100
AcDbEntity
  8
0
100
AcDbBlockEnd
  0
BLOCK
  5
8F
330
8D
100
AcDbEntity
  8
0
100
AcDbBlockBegin
  2
block 13
 70
     0
 10
0.0
 20
0.0
 30
0.0
  3
block 13
  1

  0
SPLINE
  5
91
330
8D
100
AcDbEntity
  8
Camada 1
 62
   250
420
  2499364
370
     9
100
AcDbSpline
210
0.0
220
0.0
230
1.0
 70
    11
 71
     3
 72
    35
 73
    31
 74
     0
 42
0.0000000001
 43
0.0000000001
 12
1.0
 22
0.0
 32
0.0
 13
1.0
 23
0.0
 33
0.0
 40
0.0
 40
0.0
 40
0.0
 40
0.0
 40
1.0
 40
1.0
 40
1.0
 40
2.0
 40
2.0
 40
2.0
 40
3.0
 40
3.0
 40
3.0
 40
4.0
 40
4.0
 40
4.0
 40
5.0
 40
5.0
 40
5.0
 40
6.0
 40
6.0
 40
6.0
 40
7.0
 40
7.0
 40
7.0
 40
8.0
 40
8.0
 40
8.0
 40
9.0
 40
9.0
 40
9.0
 40
10.0
 40
10.0
 40
10.0
 40
10.0
 10
412.8113076291247
 20
162.5710771815795
 30
0.0
 10
282.2416198839892
 20
162.5710771815795
 30
0.0
 10
211.5510210127732
 20
122.1504696916854
 30
0.0
 10
211.5510210127732
 20
7.553571942557534
 30
0.0
 10
211.5510210127732
 20
-93.25370108779731
 30
0.0
 10
260.7816185004665
 20
-140.5689974648563
 30
0.0
 10
415.3680998507073
 20
-140.5689974648563
 30
0.0
 10
577.4910081435104
 20
-140.5689974648563
 30
0.0
 10
618.26591035554
 20
-83.23710525696872
 30
0.0
 10
618.26591035554
 20
-14.68201138521906
 30
0.0
 10
618.26591035554
 20
-14.68201138521906
 30
0.0
 10
516.3957178810061
 20
-14.68201138521906
 30
0.0
 10
516.3957178810061
 20
-14.68201138521906
 30
0.0
 10
516.3957178810061
 20
-14.68201138521906
 30
0.0
 10
515.5434067701084
 20
-56.30922470814445
 30
0.0
 10
412.0356198515402
 20
-56.30922470814445
 30
0.0
 10
335.0918937596667
 20
-56.30922470814445
 30
0.0
 10
314.1395043204606
 20
-26.32650027119548
 30
0.0
 10
314.1395043204606
 20
11.03929860835113
 30
0.0
 10
314.1395043204606
 20
44.21078137783648
 30
0.0
 10
328.2066945947203
 20
77.24827914735576
 30
0.0
 10
412.0356198515402
 20
77.24827914735576
 30
0.0
 10
509.2902089938946
 20
77.24827914735576
 30
0.0
 10
516.3957178810061
 20
27.87410110414302
 30
0.0
 10
516.3957178810061
 20
27.87410110414302
 30
0.0
 10
516.3957178810061
 20
27.87410110414302
 30
0.0
 10
618.26591035554
 20
27.87410110414302
 30
0.0
 10
618.26591035554
 20
27.87410110414302
 30
0.0
 10
618.26591035554
 20
108.4375741395575
 30
0.0
 10
567.1201175905474
 20
162.5710771815795
 30
0.0
 10
412.8113076291247
 20
162.5710771815795
 30
0.0
  0
ENDBLK
  5
90
330
8D
100
AcDbEntity
  8
0
100
AcDbBlockEnd
  0
BLOCK
  5
94
330
92
100
AcDbEntity
  8
0
100
AcDbBlockBegin
  2
block 14
 70
     0
 10
0.0
 20
0.0
 30
0.0
  3
block 14
  1

  0
SPLINE
  5
96
330
92
100
AcDbEntity
  8
Camada 1
 62
   250
420
  2499364
370
     9
100
AcDbSpline
210
0.0
220
0.0
230
1.0
 70
    11
 71
     3
 72
    17
 73
    13
 74
     0
 42
0.0000000001
 43
0.0000000001
 12
1.0
 22
0.0
 32
0.0
 13
1.0
 23
0.0
 33
0.0
 40
0.0
 40
0.0
 40
0.0
 40
0.0
 40
1.0
 40
1.0
 40
1.0
 40
2.0
 40
2.0
 40
2.0
 40
3.0
 40
3.0
 40
3.0
 40
4.0
 40
4.0
 40
4.0
 40
4.0
 10
833.5456211350522
 20
164.6969866254922
 30
0.0
 10
699.3465203352681
 20
164.6969866254922
 30
0.0
 10
634.9091192402665
 20
117.6688866372496
 30
0.0
 10
634.9091192402665
 20
17.64679110669936
 30
0.0
 10
634.9091192402665
 20
-89.41371497764676
 30
0.0
 10
693.7349195033383
 20
-140.5689974648563
 30
0.0
 10
836.2459939121543
 20
-140.5689974648563
 30
0.0
 10
975.0608038774517
 20
-140.5689974648563
 30
0.0
 10
1041.193125805364
 20
-104.3332163628043
 30
0.0
 10
1041.193125805364
 20
12.03519027476958
 30
0.0
 10
1041.193125805364
 20
130.9604949672592
 30
0.0
 10
963.1960052693069
 20
164.6969866254922
 30
0.0
 10
833.5456211350522
 20
164.6969866254922
 30
0.0
  0
ENDBLK
  5
95
330
92
100
AcDbEntity
  8
0
100
AcDbBlockEnd
  0
BLOCK
  5
99
330
97
100
AcDbEntity
  8
0
100
AcDbBlockBegin
  2
block 15
 70
     0
 10
0.0
 20
0.0
 30
0.0
  3
block 15
  1

  0
SPLINE
  5
9B
330
97
100
AcDbEntity
  8
Camada 1
 62
   250
420
  2499364
370
     9
100
AcDbSpline
210
0.0
220
0.0
230
1.0
 70
    11
 71
     3
 72
    17
 73
    13
 74
     0
 42
0.0000000001
 43
0.0000000001
 12
1.0
 22
0.0
 32
0.0
 13
1.0
 23
0.0
 33
0.0
 40
0.0
 40
0.0
 40
0.0
 40
0.0
 40
1.0
 40
1.0
 40
1.0
 40
2.0
 40
2.0
 40
2.0
 40
3.0
 40
3.0
 40
3.0
 40
4.0
 40
4.0
 40
4.0
 40
4.0
 10
837.2323958563533
 20
-62.1313985955773
 30
0.0
 10
773.5132150389494
 20
-62.1313985955773
 30
0.0
 10
744.1721228240626
 20
-31.22940582552568
 30
0.0
 10
744.1721228240626
 20
12.03519027476958
 30
0.0
 10
744.1721228240626
 20
58.63237220756453
 30
0.0
 10
773.5802075389325
 20
86.26898331176655
 30
0.0
 10
835.9587975233374
 20
86.26898331176655
 30
0.0
 10
892.0841191759733
 20
86.26898331176655
 30
0.0
 10
931.9397177771215
 20
61.76380415122622
 30
0.0
 10
931.9397177771215
 20
12.03519027476958
 30
0.0
 10
931.9397177771215
 20
-39.33080637905564
 30
0.0
 10
895.2729127862879
 20
-62.1313985955773
 30
0.0
 10
837.2323958563533
 20
-62.1313985955773
 30
0.0
  0
ENDBLK
  5
9A
330
97
100
AcDbEntity
  8
0
100
AcDbBlockEnd
  0
BLOCK
  5
9E
330
9C
100
AcDbEntity
  8
0
100
AcDbBlockBegin
  2
block 16
 70
     0
 10
0.0
 20
0.0
 30
0.0
  3
block 16
  1

  0
POLYLINE
  5
A0
330
9C
100
AcDbEntity
  8
Camada 1
 62
   250
420
  2499364
370
     9
100
AcDb2dPolyline
 66
     1
 10
0.0
 20
0.0
 30
0.0
  0
VERTEX
  5
A1
330
A0
100
AcDbEntity
  8
Camada 1
 62
   250
420
  2499364
370
     9
100
AcDbVertex
100
AcDb2dVertex
 10
1317.146804347486
 20
-139.2858035762883
 30
0.0
  0
VERTEX
  5
A2
330
A0
100
AcDbEntity
  8
Camada 1
 62
   250
420
  2499364
370
     9
100
AcDbVertex
100
AcDb2dVertex
 10
1394.013907106049
 20
-7.222207775971783
 30
0.0
  0
VERTEX
  5
A3
330
A0
100
AcDbEntity
  8
Camada 1
 62
   250
420
  2499364
370
     9
100
AcDbVertex
100
AcDb2dVertex
 10
1394.013907106048
 20
-139.2858035762883
 30
0.0
  0
VERTEX
  5
A4
330
A0
100
AcDbEntity
  8
Camada 1
 62
   250
420
  2499364
370
     9
100
AcDbVertex
100
AcDb2dVertex
 10
1493.116699025715
 20
-139.2858035762883
 30
0.0
  0
VERTEX
  5
A5
330
A0
100
AcDbEntity
  8
Camada 1
 62
   250
420
  2499364
370
     9
100
AcDbVertex
100
AcDb2dVertex
 10
1493.116699025715
 20
160.1579007932944
 30
0.0
  0
VERTEX
  5
A6
330
A0
100
AcDbEntity
  8
Camada 1
 62
   250
420
  2499364
370
     9
100
AcDbVertex
100
AcDb2dVertex
 10
1374.469100999822
 20
160.1579007932941
 30
0.0
  0
VERTEX
  5
A7
330
A0
100
AcDbEntity
  8
Camada 1
 62
   250
420
  2499364
370
     9
100
AcDbVertex
100
AcDb2dVertex
 10
1277.568912412935
 20
-5.795398054106915
 30
0.0
  0
VERTEX
  5
A8
330
A0
100
AcDbEntity
  8
Camada 1
 62
   250
420
  2499364
370
     9
100
AcDbVertex
100
AcDb2dVertex
 10
1180.812304381569
 20
160.1579007932944
 30
0.0
  0
VERTEX
  5
A9
330
A0
100
AcDbEntity
  8
Camada 1
 62
   250
420
  2499364
370
     9
100
AcDbVertex
100
AcDb2dVertex
 10
1062.528596633363
 20
160.1579007932941
 30
0.0
  0
VERTEX
  5
AA
330
A0
100
AcDbEntity
  8
Camada 1
 62
   250
420
  2499364
370
     9
100
AcDbVertex
100
AcDb2dVertex
 10
1062.528596633363
 20
-139.285803576289
 30
0.0
  0
VERTEX
  5
AB
330
A0
100
AcDbEntity
  8
Camada 1
 62
   250
420
  2499364
370
     9
100
AcDbVertex
100
AcDb2dVertex
 10
1161.631423830808
 20
-139.2858035762883
 30
0.0
  0
VERTEX
  5
AC
330
A0
100
AcDbEntity
  8
Camada 1
 62
   250
420
  2499364
370
     9
100
AcDbVertex
100
AcDb2dVertex
 10
1161.631423830808
 20
-8.141511386853876
 30
0.0
  0
VERTEX
  5
AD
330
A0
100
AcDbEntity
  8
Camada 1
 62
   250
420
  2499364
370
     9
100
AcDbVertex
100
AcDb2dVertex
 10
1235.300102145725
 20
-139.285803576289
 30
0.0
  0
VERTEX
  5
AE
330
A0
100
AcDbEntity
  8
Camada 1
 62
   250
420
  2499364
370
     9
100
AcDbVertex
100
AcDb2dVertex
 10
1317.146804347485
 20
-139.2858035762883
 30
0.0
  0
SEQEND
  5
AF
330
A0
100
AcDbEntity
  8
Camada 1
 62
   250
420
  2499364
370
     9
  0
ENDBLK
  5
9F
330
9C
100
AcDbEntity
  8
0
100
AcDbBlockEnd
  0
BLOCK
  5
B2
330
B0
100
AcDbEntity
  8
0
100
AcDbBlockBegin
  2
block 17
 70
     0
 10
0.0
 20
0.0
 30
0.0
  3
block 17
  1

  0
POLYLINE
  5
B4
330
B0
100
AcDbEntity
  8
Camada 1
 62
   250
420
  2499364
370
     9
100
AcDb2dPolyline
 66
     1
 10
0.0
 20
0.0
 30
0.0
  0
VERTEX
  5
B5
330
B4
100
AcDbEntity
  8
Camada 1
 62
   250
420
  2499364
370
     9
100
AcDbVertex
100
AcDb2dVertex
 10
1522.543904296137
 20
159.9376969044602
 30
0.0
  0
VERTEX
  5
B6
330
B4
100
AcDbEntity
  8
Camada 1
 62
   250
420
  2499364
370
     9
100
AcDbVertex
100
AcDb2dVertex
 10
1522.543904296137
 20
-139.285803576289
 30
0.0
  0
VERTEX
  5
B7
330
B4
100
AcDbEntity
  8
Camada 1
 62
   250
420
  2499364
370
     9
100
AcDbVertex
100
AcDb2dVertex
 10
1852.746020880254
 20
-139.2858035762883
 30
0.0
  0
VERTEX
  5
B8
330
B4
100
AcDbEntity
  8
Camada 1
 62
   250
420
  2499364
370
     9
100
AcDbVertex
100
AcDb2dVertex
 10
1852.746020880253
 20
-56.24212637482885
 30
0.0
  0
VERTEX
  5
B9
330
B4
100
AcDbEntity
  8
Camada 1
 62
   250
420
  2499364
370
     9
100
AcDbVertex
100
AcDb2dVertex
 10
1621.646696215805
 20
-56.24212637482885
 30
0.0
  0
VERTEX
  5
BA
330
B4
100
AcDbEntity
  8
Camada 1
 62
   250
420
  2499364
370
     9
100
AcDbVertex
100
AcDb2dVertex
 10
1621.646696215805
 20
-29.31421054822642
 30
0.0
  0
VERTEX
  5
BB
330
B4
100
AcDbEntity
  8
Camada 1
 62
   250
420
  2499364
370
     9
100
AcDbVertex
100
AcDb2dVertex
 10
1838.03719838393
 20
-29.31421054822642
 30
0.0
  0
VERTEX
  5
BC
330
B4
100
AcDbEntity
  8
Camada 1
 62
   250
420
  2499364
370
     9
100
AcDbVertex
100
AcDb2dVertex
 10
1838.03719838393
 20
50.3969866540672
 30
0.0
  0
VERTEX
  5
BD
330
B4
100
AcDbEntity
  8
Camada 1
 62
   250
420
  2499364
370
     9
100
AcDbVertex
100
AcDb2dVertex
 10
1621.646696215805
 20
50.3969866540672
 30
0.0
  0
VERTEX
  5
BE
330
B4
100
AcDbEntity
  8
Camada 1
 62
   250
420
  2499364
370
     9
100
AcDbVertex
100
AcDb2dVertex
 10
1621.646696215805
 20
76.89398442522129
 30
0.0
  0
VERTEX
  5
BF
330
B4
100
AcDbEntity
  8
Camada 1
 62
   250
420
  2499364
370
     9
100
AcDbVertex
100
AcDb2dVertex
 10
1852.746020880252
 20
76.89398442522129
 30
0.0
  0
VERTEX
  5
C0
330
B4
100
AcDbEntity
  8
Camada 1
 62
   250
420
  2499364
370
     9
100
AcDbVertex
100
AcDb2dVertex
 10
1852.746020880253
 20
159.9376969044602
 30
0.0
  0
VERTEX
  5
C1
330
B4
100
AcDbEntity
  8
Camada 1
 62
   250
420
  2499364
370
     9
100
AcDbVertex
100
AcDb2dVertex
 10
1522.543904296137
 20
159.9376969044602
 30
0.0
  0
SEQEND
  5
C2
330
B4
100
AcDbEntity
  8
Camada 1
 62
   250
420
  2499364
370
     9
  0
ENDBLK
  5
B3
330
B0
100
AcDbEntity
  8
0
100
AcDbBlockEnd
  0
BLOCK
  5
C5
330
C3
100
AcDbEntity
  8
0
100
AcDbBlockBegin
  2
block 18
 70
     0
 10
0.0
 20
0.0
 30
0.0
  3
block 18
  1

  0
SPLINE
  5
C7
330
C3
100
AcDbEntity
  8
Camada 1
 62
   250
420
  2499364
370
     9
100
AcDbSpline
210
0.0
220
0.0
230
1.0
 70
    11
 71
     3
 72
    62
 73
    58
 74
     0
 42
0.0000000001
 43
0.0000000001
 12
1.0
 22
0.0
 32
0.0
 13
1.0
 23
0.0
 33
0.0
 40
0.0
 40
0.0
 40
0.0
 40
0.0
 40
1.0
 40
1.0
 40
1.0
 40
2.0
 40
2.0
 40
2.0
 40
3.0
 40
3.0
 40
3.0
 40
4.0
 40
4.0
 40
4.0
 40
5.0
 40
5.0
 40
5.0
 40
6.0
 40
6.0
 40
6.0
 40
7.0
 40
7.0
 40
7.0
 40
8.0
 40
8.0
 40
8.0
 40
9.0
 40
9.0
 40
9.0
 40
10.0
 40
10.0
 40
10.0
 40
11.0
 40
11.0
 40
11.0
 40
12.0
 40
12.0
 40
12.0
 40
13.0
 40
13.0
 40
13.0
 40
14.0
 40
14.0
 40
14.0
 40
15.0
 40
15.0
 40
15.0
 40
16.0
 40
16.0
 40
16.0
 40
17.0
 40
17.0
 40
17.0
 40
18.0
 40
18.0
 40
18.0
 40
19.0
 40
19.0
 40
19.0
 40
19.0
 10
2073.426618325082
 20
-57.80302692999236
 30
0.0
 10
1996.492523066537
 20
-57.80302692999236
 30
0.0
 10
1975.607020293982
 20
-27.82040832637723
 30
0.0
 10
1975.607020293982
 20
9.478398053186345
 30
0.0
 10
1975.607020293982
 20
42.72657471153997
 30
0.0
 10
1989.674316401576
 20
75.7543710921721
 30
0.0
 10
2073.426618325082
 20
75.7543710921721
 30
0.0
 10
2170.757795522973
 20
75.7543710921721
 30
0.0
 10
2177.86319857675
 20
26.38019304896127
 30
0.0
 10
2177.86319857675
 20
26.38019304896127
 30
0.0
 10
2177.86319857675
 20
26.38019304896127
 30
0.0
 10
2279.733496884617
 20
26.38019304896127
 30
0.0
 10
2279.733496884617
 20
26.38019304896127
 30
0.0
 10
2279.733496884617
 20
106.9437013621533
 30
0.0
 10
2228.587704119626
 20
161.0772044041756
 30
0.0
 10
2074.278894158203
 20
161.0772044041756
 30
0.0
 10
1943.709100579735
 20
161.0772044041756
 30
0.0
 10
1873.018607541851
 20
120.6565969142811
 30
0.0
 10
1873.018607541851
 20
6.069400554038537
 30
0.0
 10
1873.018607541851
 20
-82.09752720169769
 30
0.0
 10
1910.671708643549
 20
-129.3363060787766
 30
0.0
 10
2023.487396115345
 20
-139.7838199650535
 30
0.0
 10
2023.487396115345
 20
-139.7838199650535
 30
0.0
 10
2013.470800284516
 20
-174.9471213451514
 30
0.0
 10
2013.470800284516
 20
-174.9471213451514
 30
0.0
 10
2013.470800284516
 20
-174.9471213451514
 30
0.0
 10
2027.892426392023
 20
-174.8035055118551
 30
0.0
 10
2061.284218883673
 20
-174.8035055118551
 30
0.0
 10
2076.19412471328
 20
-174.8035055118551
 30
0.0
 10
2076.835721657564
 20
-193.7067146737952
 30
0.0
 10
2051.899624441575
 20
-193.7067146737952
 30
0.0
 10
2011.124722229546
 20
-193.7067146737952
 30
0.0
 10
2009.276519452232
 20
-193.7067146737952
 30
0.0
 10
2009.276519452232
 20
-193.7067146737952
 30
0.0
 10
2009.276519452232
 20
-193.7067146737952
 30
0.0
 10
1997.986325288387
 20
-230.5075046645942
 30
0.0
 10
1997.986325288387
 20
-230.5075046645942
 30
0.0
 10
1997.986325288387
 20
-230.5075046645942
 30
0.0
 10
2034.64349944589
 20
-231.7811029976101
 30
0.0
 10
2072.928707769652
 20
-231.7811029976101
 30
0.0
 10
2126.142907200792
 20
-231.7811029976101
 30
0.0
 10
2138.639707197668
 20
-207.8408974480399
 30
0.0
 10
2138.639707197668
 20
-181.8419160656491
 30
0.0
 10
2138.639707197668
 20
-163.6569271813075
 30
0.0
 10
2133.957005532172
 20
-155.0576160723455
 30
0.0
 10
2090.261314987541
 20
-155.0576160723455
 30
0.0
 10
2090.548617209691
 20
-151.5719246843288
 30
0.0
 10
2091.611607209425
 20
-146.3147244078661
 30
0.0
 10
2092.540506375859
 20
-141.8427016312054
 30
0.0
 10
2241.582414671933
 20
-138.2229194098888
 30
0.0
 10
2279.733496884617
 20
-82.45192775716471
 30
0.0
 10
2279.733496884617
 20
-16.24291194038385
 30
0.0
 10
2279.733496884617
 20
-16.24291194038385
 30
0.0
 10
2177.86319857675
 20
-16.24291194038385
 30
0.0
 10
2177.86319857675
 20
-16.24291194038385
 30
0.0
 10
2177.86319857675
 20
-16.16632388484685
 30
0.0
 10
2177.010993299187
 20
-57.80302692999236
 30
0.0
 10
2073.426618325082
 20
-57.80302692999236
 30
0.0
  0
ENDBLK
  5
C6
330
C3
100
AcDbEntity
  8
0
100
AcDbBlockEnd
  0
BLOCK
  5
CA
330
C8
100
AcDbEntity
  8
0
100
AcDbBlockBegin
  2
block 19
 70
     0
 10
0.0
 20
0.0
 30
0.0
  3
block 19
  1

  0
SPLINE
  5
CC
330
C8
100
AcDbEntity
  8
Camada 1
 62
   250
420
  2499364
370
     9
100
AcDbSpline
210
0.0
220
0.0
230
1.0
 70
    11
 71
     3
 72
    17
 73
    13
 74
     0
 42
0.0000000001
 43
0.0000000001
 12
1.0
 22
0.0
 32
0.0
 13
1.0
 23
0.0
 33
0.0
 40
0.0
 40
0.0
 40
0.0
 40
0.0
 40
1.0
 40
1.0
 40
1.0
 40
2.0
 40
2.0
 40
2.0
 40
3.0
 40
3.0
 40
3.0
 40
4.0
 40
4.0
 40
4.0
 40
4.0
 10
2495.013207664131
 20
164.6969866254922
 30
0.0
 10
2360.814106864347
 20
164.6969866254922
 30
0.0
 10
2296.376705769344
 20
117.6688866372496
 30
0.0
 10
2296.376705769344
 20
17.64679110669936
 30
0.0
 10
2296.376705769344
 20
-89.41371497764676
 30
0.0
 10
2355.202506032416
 20
-140.5689974648563
 30
0.0
 10
2497.71361571901
 20
-140.5689974648563
 30
0.0
 10
2636.528319850974
 20
-140.5689974648563
 30
0.0
 10
2702.660712334442
 20
-104.3332163628043
 30
0.0
 10
2702.660712334442
 20
12.03519027476958
 30
0.0
 10
2702.660712334442
 20
130.9604949672592
 30
0.0
 10
2624.663627076162
 20
164.6969866254922
 30
0.0
 10
2495.013207664131
 20
164.6969866254922
 30
0.0
  0
ENDBLK
  5
CB
330
C8
100
AcDbEntity
  8
0
100
AcDbBlockEnd
  0
BLOCK
  5
CF
330
CD
100
AcDbEntity
  8
0
100
AcDbBlockBegin
  2
block 20
 70
     0
 10
0.0
 20
0.0
 30
0.0
  3
block 20
  1

  0
SPLINE
  5
D1
330
CD
100
AcDbEntity
  8
Camada 1
 62
   250
420
  2499364
370
     9
100
AcDbSpline
210
0.0
220
0.0
230
1.0
 70
    11
 71
     3
 72
    17
 73
    13
 74
     0
 42
0.0000000001
 43
0.0000000001
 12
1.0
 22
0.0
 32
0.0
 13
1.0
 23
0.0
 33
0.0
 40
0.0
 40
0.0
 40
0.0
 40
0.0
 40
1.0
 40
1.0
 40
1.0
 40
2.0
 40
2.0
 40
2.0
 40
3.0
 40
3.0
 40
3.0
 40
4.0
 40
4.0
 40
4.0
 40
4.0
 10
2498.700017663209
 20
-62.1313985955773
 30
0.0
 10
2434.980801568027
 20
-62.1313985955773
 30
0.0
 10
2405.63970935314
 20
-31.22940582552568
 30
0.0
 10
2405.63970935314
 20
12.03519027476958
 30
0.0
 10
2405.63970935314
 20
58.63237220756453
 30
0.0
 10
2435.047794068011
 20
86.26898331176655
 30
0.0
 10
2497.42631349686
 20
86.26898331176655
 30
0.0
 10
2553.551705705051
 20
86.26898331176655
 30
0.0
 10
2593.407304306199
 20
61.76380415122622
 30
0.0
 10
2593.407304306199
 20
12.03519027476958
 30
0.0
 10
2593.407304306199
 20
-39.33080637905564
 30
0.0
 10
2556.740499315365
 20
-62.1313985955773
 30
0.0
 10
2498.700017663209
 20
-62.1313985955773
 30
0.0
  0
ENDBLK
  5
D0
330
CD
100
AcDbEntity
  8
0
100
AcDbBlockEnd
  0
BLOCK
  5
D4
330
D2
100
AcDbEntity
  8
0
100
AcDbBlockBegin
  2
block 21
 70
     0
 10
0.0
 20
0.0
 30
0.0
  3
block 21
  1

  0
POLYLINE
  5
D6
330
D2
100
AcDbEntity
  8
Camada 1
 62
   250
420
  2499364
370
     9
100
AcDb2dPolyline
 66
     1
 10
0.0
 20
0.0
 30
0.0
  0
VERTEX
  5
D7
330
D6
100
AcDbEntity
  8
Camada 1
 62
   250
420
  2499364
370
     9
100
AcDbVertex
100
AcDb2dVertex
 10
-784.2837776271565
 20
262.0951916011433
 30
0.0
  0
VERTEX
  5
D8
330
D6
100
AcDbEntity
  8
Camada 1
 62
   250
420
  2499364
370
     9
100
AcDbVertex
100
AcDb2dVertex
 10
-722.2021912537887
 20
447.5645804436647
 30
0.0
  0
VERTEX
  5
D9
330
D6
100
AcDbEntity
  8
Camada 1
 62
   250
420
  2499364
370
     9
100
AcDbVertex
100
AcDb2dVertex
 10
-690.2659951506614
 20
447.5645804436647
 30
0.0
  0
VERTEX
  5
DA
330
D6
100
AcDbEntity
  8
Camada 1
 62
   250
420
  2499364
370
     9
100
AcDbVertex
100
AcDb2dVertex
 10
-628.1843029439593
 20
262.0951916011433
 30
0.0
  0
VERTEX
  5
DB
330
D6
100
AcDbEntity
  8
Camada 1
 62
   250
420
  2499364
370
     9
100
AcDbVertex
100
AcDb2dVertex
 10
-652.0095029380028
 20
262.0951916011433
 30
0.0
  0
VERTEX
  5
DC
330
D6
100
AcDbEntity
  8
Camada 1
 62
   250
420
  2499364
370
     9
100
AcDbVertex
100
AcDb2dVertex
 10
-666.6632921010067
 20
305.5034740902914
 30
0.0
  0
VERTEX
  5
DD
330
D6
100
AcDbEntity
  8
Camada 1
 62
   250
420
  2499364
370
     9
100
AcDbVertex
100
AcDb2dVertex
 10
-745.9351751367445
 20
305.5034740902914
 30
0.0
  0
VERTEX
  5
DE
330
D6
100
AcDbEntity
  8
Camada 1
 62
   250
420
  2499364
370
     9
100
AcDbVertex
100
AcDb2dVertex
 10
-760.4585776331128
 20
262.0951916011433
 30
0.0
  0
VERTEX
  5
DF
330
D6
100
AcDbEntity
  8
Camada 1
 62
   250
420
  2499364
370
     9
100
AcDbVertex
100
AcDb2dVertex
 10
-784.2837776271568
 20
262.0951916011433
 30
0.0
  0
SEQEND
  5
E0
330
D6
100
AcDbEntity
  8
Camada 1
 62
   250
420
  2499364
370
     9
  0
ENDBLK
  5
D5
330
D2
100
AcDbEntity
  8
0
100
AcDbBlockEnd
  0
BLOCK
  5
E3
330
E1
100
AcDbEntity
  8
0
100
AcDbBlockBegin
  2
block 22
 70
     0
 10
0.0
 20
0.0
 30
0.0
  3
block 22
  1

  0
POLYLINE
  5
E5
330
E1
100
AcDbEntity
  8
Camada 1
 62
   250
420
  2499364
370
     9
100
AcDb2dPolyline
 66
     1
 10
0.0
 20
0.0
 30
0.0
  0
VERTEX
  5
E6
330
E5
100
AcDbEntity
  8
Camada 1
 62
   250
420
  2499364
370
     9
100
AcDbVertex
100
AcDb2dVertex
 10
-673.9239879325249
 20
327.0113826960256
 30
0.0
  0
VERTEX
  5
E7
330
E5
100
AcDbEntity
  8
Camada 1
 62
   250
420
  2499364
370
     9
100
AcDbVertex
100
AcDb2dVertex
 10
-706.476380979942
 20
423.4398015608071
 30
0.0
  0
VERTEX
  5
E8
330
E5
100
AcDbEntity
  8
Camada 1
 62
   250
420
  2499364
370
     9
100
AcDbVertex
100
AcDb2dVertex
 10
-738.7391787496549
 20
327.0113826960256
 30
0.0
  0
VERTEX
  5
E9
330
E5
100
AcDbEntity
  8
Camada 1
 62
   250
420
  2499364
370
     9
100
AcDbVertex
100
AcDb2dVertex
 10
-673.9239879325249
 20
327.0113826960256
 30
0.0
  0
SEQEND
  5
EA
330
E5
100
AcDbEntity
  8
Camada 1
 62
   250
420
  2499364
370
     9
  0
ENDBLK
  5
E4
330
E1
100
AcDbEntity
  8
0
100
AcDbBlockEnd
  0
BLOCK
  5
ED
330
EB
100
AcDbEntity
  8
0
100
AcDbBlockBegin
  2
block 23
 70
     0
 10
0.0
 20
0.0
 30
0.0
  3
block 23
  1

  0
SPLINE
  5
EF
330
EB
100
AcDbEntity
  8
Camada 1
 62
   250
420
  2499364
370
     9
100
AcDbSpline
210
0.0
220
0.0
230
1.0
 70
    11
 71
     3
 72
    56
 73
    52
 74
     0
 42
0.0000000001
 43
0.0000000001
 12
1.0
 22
0.0
 32
0.0
 13
1.0
 23
0.0
 33
0.0
 40
0.0
 40
0.0
 40
0.0
 40
0.0
 40
1.0
 40
1.0
 40
1.0
 40
2.0
 40
2.0
 40
2.0
 40
3.0
 40
3.0
 40
3.0
 40
4.0
 40
4.0
 40
4.0
 40
5.0
 40
5.0
 40
5.0
 40
6.0
 40
6.0
 40
6.0
 40
7.0
 40
7.0
 40
7.0
 40
8.0
 40
8.0
 40
8.0
 40
9.0
 40
9.0
 40
9.0
 40
10.0
 40
10.0
 40
10.0
 40
11.0
 40
11.0
 40
11.0
 40
12.0
 40
12.0
 40
12.0
 40
13.0
 40
13.0
 40
13.0
 40
14.0
 40
14.0
 40
14.0
 40
15.0
 40
15.0
 40
15.0
 40
16.0
 40
16.0
 40
16.0
 40
17.0
 40
17.0
 40
17.0
 40
17.0
 10
-871.7994776052776
 20
258.3604743798542
 30
0.0
 10
-884.7654720464806
 20
258.3604743798542
 30
0.0
 10
-895.7588742659548
 20
261.8844774345291
 30
0.0
 10
-904.7699828748135
 20
268.9228879883254
 30
0.0
 10
-913.7905812058921
 20
275.9614043754545
 30
0.0
 10
-919.9671909265699
 20
285.4033957619825
 30
0.0
 10
-923.3187914812869
 20
297.2584929812414
 30
0.0
 10
-923.3187914812869
 20
297.2584929812414
 30
0.0
 10
-900.5181992647659
 20
302.6689752021114
 30
0.0
 10
-900.5181992647659
 20
302.6689752021114
 30
0.0
 10
-899.1487864873299
 20
296.3966921481235
 30
0.0
 10
-895.7971859326117
 20
291.0723935383432
 30
0.0
 10
-890.520794545043
 20
286.6960793727712
 30
0.0
 10
-885.2347723241418
 20
282.3198710405317
 30
0.0
 10
-879.182693158988
 20
280.1268985410805
 30
0.0
 10
-872.3166851051485
 20
280.1268985410805
 30
0.0
 10
-867.8541873284864
 20
280.1268985410805
 30
0.0
 10
-863.2959809407381
 20
281.2472854852443
 30
0.0
 10
-858.661186497452
 20
283.4306977069203
 30
0.0
 10
-854.026392054166
 20
285.6235996508164
 30
0.0
 10
-850.4640773328338
 20
289.1858790943701
 30
0.0
 10
-847.9742776112348
 20
294.1654785375705
 30
0.0
 10
-846.2506053894431
 20
297.6032979811554
 30
0.0
 10
-845.264203445246
 20
301.4240929802003
 30
0.0
 10
-845.0056878897549
 20
305.5896929791583
 30
0.0
 10
-844.7566973342607
 20
309.7456974225642
 30
0.0
 10
-844.6226770565167
 20
314.6486735324494
 30
0.0
 10
-844.6226770565167
 20
320.3080757532563
 30
0.0
 10
-844.6226770565167
 20
320.3080757532563
 30
0.0
 10
-844.6226770565167
 20
447.5645804436647
 30
0.0
 10
-844.6226770565167
 20
447.5645804436647
 30
0.0
 10
-844.6226770565167
 20
447.5645804436647
 30
0.0
 10
-821.4390034512016
 20
447.5645804436647
 30
0.0
 10
-821.4390034512016
 20
447.5645804436647
 30
0.0
 10
-821.4390034512016
 20
447.5645804436647
 30
0.0
 10
-821.4390034512016
 20
320.3080757532563
 30
0.0
 10
-821.4390034512016
 20
320.3080757532563
 30
0.0
 10
-821.4390034512016
 20
314.9837771434763
 30
0.0
 10
-821.4390034512016
 20
310.2244874224447
 30
0.0
 10
-821.4868753956338
 20
306.0110860346084
 30
0.0
 10
-821.5251870622919
 20
301.8071743689935
 30
0.0
 10
-821.9561051177387
 20
297.8138710366582
 30
0.0
 10
-822.7701045619796
 20
293.9930760376133
 30
0.0
 10
-823.5839981728868
 20
290.1721752052352
 30
0.0
 10
-825.1736853947126
 20
286.2651965951003
 30
0.0
 10
-827.4910826163549
 20
282.3198710405317
 30
0.0
 10
-832.125877059641
 20
274.1610735425713
 30
0.0
 10
-838.3119765025389
 20
268.1472707662975
 30
0.0
 10
-846.078202889486
 20
264.2401863228294
 30
0.0
 10
-853.8539895542089
 20
260.3331724349173
 30
0.0
 10
-862.4437051076169
 20
258.3604743798542
 30
0.0
 10
-871.7994776052776
 20
258.3604743798542
 30
0.0
  0
ENDBLK
  5
EE
330
EB
100
AcDbEntity
  8
0
100
AcDbBlockEnd
  0
BLOCK
  5
F2
330
F0
100
AcDbEntity
  8
0
100
AcDbBlockBegin
  2
block 24
 70
     0
 10
0.0
 20
0.0
 30
0.0
  3
block 24
  1

  0
POLYLINE
  5
F4
330
F0
100
AcDbEntity
  8
Camada 1
 62
   250
420
  2499364
370
     9
100
AcDb2dPolyline
 66
     1
 10
0.0
 20
0.0
 30
0.0
  0
VERTEX
  5
F5
330
F4
100
AcDbEntity
  8
Camada 1
 62
   250
420
  2499364
370
     9
100
AcDbVertex
100
AcDb2dVertex
 10
-1069.823098666884
 20
262.0951916011433
 30
0.0
  0
VERTEX
  5
F6
330
F4
100
AcDbEntity
  8
Camada 1
 62
   250
420
  2499364
370
     9
100
AcDbVertex
100
AcDb2dVertex
 10
-1069.823098666884
 20
447.5645804436647
 30
0.0
  0
VERTEX
  5
F7
330
F4
100
AcDbEntity
  8
Camada 1
 62
   250
420
  2499364
370
     9
100
AcDbVertex
100
AcDb2dVertex
 10
-952.6215720295169
 20
447.5645804436647
 30
0.0
  0
VERTEX
  5
F8
330
F4
100
AcDbEntity
  8
Camada 1
 62
   250
420
  2499364
370
     9
100
AcDbVertex
100
AcDb2dVertex
 10
-952.6215720295169
 20
425.7980857268843
 30
0.0
  0
VERTEX
  5
F9
330
F4
100
AcDbEntity
  8
Camada 1
 62
   250
420
  2499364
370
     9
100
AcDbVertex
100
AcDb2dVertex
 10
-1046.897975894837
 20
425.7980857268843
 30
0.0
  0
VERTEX
  5
FA
330
F4
100
AcDbEntity
  8
Camada 1
 62
   250
420
  2499364
370
     9
100
AcDbVertex
100
AcDb2dVertex
 10
-1046.897975894837
 20
367.7096968525175
 30
0.0
  0
VERTEX
  5
FB
330
F4
100
AcDbEntity
  8
Camada 1
 62
   250
420
  2499364
370
     9
100
AcDbVertex
100
AcDb2dVertex
 10
-968.0774014700978
 20
367.7096968525175
 30
0.0
  0
VERTEX
  5
FC
330
F4
100
AcDbEntity
  8
Camada 1
 62
   250
420
  2499364
370
     9
100
AcDbVertex
100
AcDb2dVertex
 10
-968.0774014700978
 20
345.9432726912922
 30
0.0
  0
VERTEX
  5
FD
330
F4
100
AcDbEntity
  8
Camada 1
 62
   250
420
  2499364
370
     9
100
AcDbVertex
100
AcDb2dVertex
 10
-1046.897975894837
 20
345.9432726912925
 30
0.0
  0
VERTEX
  5
FE
330
F4
100
AcDbEntity
  8
Camada 1
 62
   250
420
  2499364
370
     9
100
AcDbVertex
100
AcDb2dVertex
 10
-1046.897975894837
 20
283.8615804845905
 30
0.0
  0
VERTEX
  5
FF
330
F4
100
AcDbEntity
  8
Camada 1
 62
   250
420
  2499364
370
     9
100
AcDbVertex
100
AcDb2dVertex
 10
-952.6215720295169
 20
283.8615804845905
 30
0.0
  0
VERTEX
  5
100
330
F4
100
AcDbEntity
  8
Camada 1
 62
   250
420
  2499364
370
     9
100
AcDbVertex
100
AcDb2dVertex
 10
-952.6215720295169
 20
262.0951916011433
 30
0.0
  0
VERTEX
  5
101
330
F4
100
AcDbEntity
  8
Camada 1
 62
   250
420
  2499364
370
     9
100
AcDbVertex
100
AcDb2dVertex
 10
-1069.823098666884
 20
262.0951916011433
 30
0.0
  0
SEQEND
  5
102
330
F4
100
AcDbEntity
  8
Camada 1
 62
   250
420
  2499364
370
     9
  0
ENDBLK
  5
F3
330
F0
100
AcDbEntity
  8
0
100
AcDbBlockEnd
  0
BLOCK
  5
105
330
103
100
AcDbEntity
  8
0
100
AcDbBlockBegin
  2
block 25
 70
     0
 10
0.0
 20
0.0
 30
0.0
  3
block 25
  1

  0
SPLINE
  5
107
330
103
100
AcDbEntity
  8
Camada 1
 62
   250
420
  2499364
370
     9
100
AcDbSpline
210
0.0
220
0.0
230
1.0
 70
    11
 71
     3
 72
    44
 73
    40
 74
     0
 42
0.0000000001
 43
0.0000000001
 12
1.0
 22
0.0
 32
0.0
 13
1.0
 23
0.0
 33
0.0
 40
0.0
 40
0.0
 40
0.0
 40
0.0
 40
1.0
 40
1.0
 40
1.0
 40
2.0
 40
2.0
 40
2.0
 40
3.0
 40
3.0
 40
3.0
 40
4.0
 40
4.0
 40
4.0
 40
5.0
 40
5.0
 40
5.0
 40
6.0
 40
6.0
 40
6.0
 40
7.0
 40
7.0
 40
7.0
 40
8.0
 40
8.0
 40
8.0
 40
9.0
 40
9.0
 40
9.0
 40
10.0
 40
10.0
 40
10.0
 40
11.0
 40
11.0
 40
11.0
 40
12.0
 40
12.0
 40
12.0
 40
13.0
 40
13.0
 40
13.0
 40
13.0
 10
-1228.307104182818
 20
352.3783979674614
 30
0.0
 10
-1228.307104182818
 20
352.3783979674614
 30
0.0
 10
-1178.722176695214
 20
352.3783979674614
 30
0.0
 10
-1178.722176695214
 20
352.3783979674614
 30
0.0
 10
-1177.084688084513
 20
352.3783979674614
 30
0.0
 10
-1175.19817364054
 20
352.464581578551
 30
0.0
 10
-1173.091490585511
 20
352.6369840785085
 30
0.0
 10
-1170.994297252702
 20
352.8092807451316
 30
0.0
 10
-1169.012074197642
 20
353.1157740783883
 30
0.0
 10
-1167.125595031447
 20
353.5370965782824
 30
0.0
 10
-1161.197975866262
 20
354.9160696334934
 30
0.0
 10
-1156.35250253414
 20
357.4440751884173
 30
0.0
 10
-1152.617785312852
 20
361.1022043541693
 30
0.0
 10
-1148.883173924896
 20
364.7507026865902
 30
0.0
 10
-1146.173099758907
 20
369.0407979632954
 30
0.0
 10
-1144.458987814891
 20
373.9819799065054
 30
0.0
 10
-1142.744875870875
 20
378.9136721274942
 30
0.0
 10
-1141.883075037758
 20
383.9410729595704
 30
0.0
 10
-1141.883075037758
 20
389.0930749027273
 30
0.0
 10
-1141.883075037758
 20
394.2449710125504
 30
0.0
 10
-1142.744875870875
 20
399.3106835112835
 30
0.0
 10
-1144.458987814891
 20
404.2423757322733
 30
0.0
 10
-1146.173099758907
 20
409.1836987865934
 30
0.0
 10
-1148.883173924896
 20
413.4736882299654
 30
0.0
 10
-1152.617785312852
 20
417.1700937845968
 30
0.0
 10
-1156.35250253414
 20
420.856903783675
 30
0.0
 10
-1161.197975866262
 20
423.3467035052749
 30
0.0
 10
-1167.125595031447
 20
424.6393871160629
 30
0.0
 10
-1169.012074197642
 20
425.1564887826003
 30
0.0
 10
-1170.994297252702
 20
425.501293782514
 30
0.0
 10
-1173.091490585511
 20
425.6257890602606
 30
0.0
 10
-1175.19817364054
 20
425.7502843380072
 30
0.0
 10
-1177.084688084513
 20
425.7980857268843
 30
0.0
 10
-1178.722176695214
 20
425.7980857268843
 30
0.0
 10
-1178.722176695214
 20
425.7980857268843
 30
0.0
 10
-1228.307104182818
 20
425.7980857268843
 30
0.0
 10
-1228.307104182818
 20
425.7980857268843
 30
0.0
 10
-1228.307104182818
 20
425.7980857268843
 30
0.0
 10
-1228.307104182818
 20
352.3783979674614
 30
0.0
 10
-1228.307104182818
 20
352.3783979674614
 30
0.0
  0
ENDBLK
  5
106
330
103
100
AcDbEntity
  8
0
100
AcDbBlockEnd
  0
BLOCK
  5
10A
330
108
100
AcDbEntity
  8
0
100
AcDbBlockBegin
  2
block 26
 70
     0
 10
0.0
 20
0.0
 30
0.0
  3
block 26
  1

  0
SPLINE
  5
10C
330
108
100
AcDbEntity
  8
Camada 1
 62
   250
420
  2499364
370
     9
100
AcDbSpline
210
0.0
220
0.0
230
1.0
 70
    11
 71
     3
 72
    50
 73
    46
 74
     0
 42
0.0000000001
 43
0.0000000001
 12
1.0
 22
0.0
 32
0.0
 13
1.0
 23
0.0
 33
0.0
 40
0.0
 40
0.0
 40
0.0
 40
0.0
 40
1.0
 40
1.0
 40
1.0
 40
2.0
 40
2.0
 40
2.0
 40
3.0
 40
3.0
 40
3.0
 40
4.0
 40
4.0
 40
4.0
 40
5.0
 40
5.0
 40
5.0
 40
6.0
 40
6.0
 40
6.0
 40
7.0
 40
7.0
 40
7.0
 40
8.0
 40
8.0
 40
8.0
 40
9.0
 40
9.0
 40
9.0
 40
10.0
 40
10.0
 40
10.0
 40
11.0
 40
11.0
 40
11.0
 40
12.0
 40
12.0
 40
12.0
 40
13.0
 40
13.0
 40
13.0
 40
14.0
 40
14.0
 40
14.0
 40
15.0
 40
15.0
 40
15.0
 40
15.0
 10
-1251.232191677087
 20
262.0951916011433
 30
0.0
 10
-1251.232191677087
 20
262.0951916011433
 30
0.0
 10
-1251.232191677087
 20
447.5645804436647
 30
0.0
 10
-1251.232191677087
 20
447.5645804436647
 30
0.0
 10
-1251.232191677087
 20
447.5645804436647
 30
0.0
 10
-1177.946594750964
 20
447.5645804436647
 30
0.0
 10
-1177.946594750964
 20
447.5645804436647
 30
0.0
 10
-1176.146193362525
 20
447.5645804436647
 30
0.0
 10
-1173.991603085286
 20
447.5263040547856
 30
0.0
 10
-1171.501873919242
 20
447.3921779437078
 30
0.0
 10
-1169.012074197642
 20
447.2676826659613
 30
0.0
 10
-1166.60849336491
 20
446.961295166038
 30
0.0
 10
-1164.291096143267
 20
446.5302712772568
 30
0.0
 10
-1154.245784201333
 20
444.9885971109755
 30
0.0
 10
-1145.790088925669
 20
441.5507776673905
 30
0.0
 10
-1138.962392538488
 20
436.2264790576106
 30
0.0
 10
-1132.134590317972
 20
430.9021804478303
 30
0.0
 10
-1127.03060143036
 20
424.2085043383927
 30
0.0
 10
-1123.592781986775
 20
416.0975787848645
 30
0.0
 10
-1120.154997820967
 20
407.9770929535615
 30
0.0
 10
-1118.440780043618
 20
398.9659843447033
 30
0.0
 10
-1118.440780043618
 20
389.0930749027273
 30
0.0
 10
-1118.440780043618
 20
374.7480721285353
 30
0.0
 10
-1122.175497264906
 20
362.3470865760804
 30
0.0
 10
-1129.644790596372
 20
351.8229846342674
 30
0.0
 10
-1134.858387539514
 20
344.4839721361015
 30
0.0
 10
-1141.770574204452
 20
339.0443857485723
 30
0.0
 10
-1150.374083368968
 20
335.5224993605646
 30
0.0
 10
-1150.374083368968
 20
335.5224993605646
 30
0.0
 10
-1114.581673377916
 20
262.0951916011433
 30
0.0
 10
-1114.581673377916
 20
262.0951916011433
 30
0.0
 10
-1114.581673377916
 20
262.0951916011433
 30
0.0
 10
-1140.848871704683
 20
262.0951916011433
 30
0.0
 10
-1140.848871704683
 20
262.0951916011433
 30
0.0
 10
-1140.848871704683
 20
262.0951916011433
 30
0.0
 10
-1174.055385307492
 20
330.6119738062363
 30
0.0
 10
-1174.055385307492
 20
330.6119738062363
 30
0.0
 10
-1174.055385307492
 20
330.6119738062363
 30
0.0
 10
-1228.307104182818
 20
330.6119738062363
 30
0.0
 10
-1228.307104182818
 20
330.6119738062363
 30
0.0
 10
-1228.307104182818
 20
330.6119738062363
 30
0.0
 10
-1228.307104182818
 20
262.0951916011433
 30
0.0
 10
-1228.307104182818
 20
262.0951916011433
 30
0.0
 10
-1228.307104182818
 20
262.0951916011433
 30
0.0
 10
-1251.232191677087
 20
262.0951916011433
 30
0.0
 10
-1251.232191677087
 20
262.0951916011433
 30
0.0
  0
ENDBLK
  5
10B
330
108
100
AcDbEntity
  8
0
100
AcDbBlockEnd
  0
BLOCK
  5
10F
330
10D
100
AcDbEntity
  8
0
100
AcDbBlockBegin
  2
block 27
 70
     0
 10
0.0
 20
0.0
 30
0.0
  3
block 27
  1

  0
SPLINE
  5
111
330
10D
100
AcDbEntity
  8
Camada 1
 62
   250
420
  2499364
370
     9
100
AcDbSpline
210
0.0
220
0.0
230
1.0
 70
    11
 71
     3
 72
    92
 73
    88
 74
     0
 42
0.0000000001
 43
0.0000000001
 12
1.0
 22
0.0
 32
0.0
 13
1.0
 23
0.0
 33
0.0
 40
0.0
 40
0.0
 40
0.0
 40
0.0
 40
1.0
 40
1.0
 40
1.0
 40
2.0
 40
2.0
 40
2.0
 40
3.0
 40
3.0
 40
3.0
 40
4.0
 40
4.0
 40
4.0
 40
5.0
 40
5.0
 40
5.0
 40
6.0
 40
6.0
 40
6.0
 40
7.0
 40
7.0
 40
7.0
 40
8.0
 40
8.0
 40
8.0
 40
9.0
 40
9.0
 40
9.0
 40
10.0
 40
10.0
 40
10.0
 40
11.0
 40
11.0
 40
11.0
 40
12.0
 40
12.0
 40
12.0
 40
13.0
 40
13.0
 40
13.0
 40
14.0
 40
14.0
 40
14.0
 40
15.0
 40
15.0
 40
15.0
 40
16.0
 40
16.0
 40
16.0
 40
17.0
 40
17.0
 40
17.0
 40
18.0
 40
18.0
 40
18.0
 40
19.0
 40
19.0
 40
19.0
 40
20.0
 40
20.0
 40
20.0
 40
21.0
 40
21.0
 40
21.0
 40
22.0
 40
22.0
 40
22.0
 40
23.0
 40
23.0
 40
23.0
 40
24.0
 40
24.0
 40
24.0
 40
25.0
 40
25.0
 40
25.0
 40
26.0
 40
26.0
 40
26.0
 40
27.0
 40
27.0
 40
27.0
 40
28.0
 40
28.0
 40
28.0
 40
29.0
 40
29.0
 40
29.0
 40
29.0
 10
-1376.496771923548
 20
258.2359791021082
 30
0.0
 10
-1389.204286087038
 20
258.2359791021082
 30
0.0
 10
-1400.791272195252
 20
260.4672985459944
 30
0.0
 10
-1411.267502192634
 20
264.9296904893237
 30
0.0
 10
-1421.74380274557
 20
269.3921882659854
 30
0.0
 10
-1430.764401076648
 20
275.8368738199301
 30
0.0
 10
-1438.319878019204
 20
284.2063854845042
 30
0.0
 10
-1445.875496072871
 20
292.5757913157451
 30
0.0
 10
-1451.668989126978
 20
302.7072868687683
 30
0.0
 10
-1455.748405514847
 20
314.6008015880174
 30
0.0
 10
-1459.827786624938
 20
326.4942810294883
 30
0.0
 10
-1461.886703568868
 20
339.8911935261392
 30
0.0
 10
-1461.886703568868
 20
354.8298860224046
 30
0.0
 10
-1461.886703568868
 20
374.5756696285785
 30
0.0
 10
-1458.362700514193
 20
391.6689876798605
 30
0.0
 10
-1451.324184127064
 20
406.0905785095886
 30
0.0
 10
-1444.285773573268
 20
420.5122046170945
 30
0.0
 10
-1434.364992186859
 20
431.6779035031921
 30
0.0
 10
-1421.571400245613
 20
439.5398032234489
 30
0.0
 10
-1408.777773026589
 20
447.3921779437078
 30
0.0
 10
-1393.752896919234
 20
451.2991918316199
 30
0.0
 10
-1376.496771923548
 20
451.2991918316199
 30
0.0
 10
-1355.716679150966
 20
451.2991918316199
 30
0.0
 10
-1338.968201377375
 20
446.491994888377
 30
0.0
 10
-1326.260687213885
 20
436.8297996130152
 30
0.0
 10
-1313.553278883729
 20
427.1674985043197
 30
0.0
 10
-1304.791196108141
 20
413.9524782298454
 30
0.0
 10
-1299.983999164899
 20
397.2040004562552
 30
0.0
 10
-1299.983999164899
 20
397.2040004562552
 30
0.0
 10
-1323.167672770214
 20
392.4350799018911
 30
0.0
 10
-1323.167672770214
 20
392.4350799018911
 30
0.0
 10
-1327.036374991469
 20
403.6869976768562
 30
0.0
 10
-1333.385281378771
 20
412.6597946190574
 30
0.0
 10
-1342.233583043225
 20
419.3534001729396
 30
0.0
 10
-1351.08188470768
 20
426.0566718379308
 30
0.0
 10
-1362.113598593811
 20
429.4082723926483
 30
0.0
 10
-1375.338073312727
 20
429.4082723926483
 30
0.0
 10
-1389.156378864828
 20
429.4944912815158
 30
0.0
 10
-1400.618904973073
 20
426.4396826711683
 30
0.0
 10
-1409.764104415232
 20
420.2152715616132
 30
0.0
 10
-1418.909198024056
 20
413.9907898965027
 30
0.0
 10
-1425.823183855661
 20
405.2286718431375
 30
0.0
 10
-1430.457978298947
 20
393.9863849015032
 30
0.0
 10
-1435.092772742233
 20
382.7345729598723
 30
0.0
 10
-1437.458077186086
 20
369.6823949075794
 30
0.0
 10
-1437.544296074953
 20
354.8298860224046
 30
0.0
 10
-1437.630479686043
 20
340.0635960260954
 30
0.0
 10
-1435.351394131057
 20
327.0976015848922
 30
0.0
 10
-1430.716493854438
 20
315.9319026987956
 30
0.0
 10
-1426.081699411152
 20
304.7662038126977
 30
0.0
 10
-1419.129472468446
 20
296.0519929815433
 30
0.0
 10
-1409.898195248531
 20
289.7412924275654
 30
0.0
 10
-1400.666776917506
 20
283.4306977069203
 30
0.0
 10
-1389.156378864828
 20
280.2130821521692
 30
0.0
 10
-1375.338073312727
 20
280.1268985410805
 30
0.0
 10
-1363.396792482379
 20
280.0407854855453
 30
0.0
 10
-1353.351480540446
 20
282.3198710405317
 30
0.0
 10
-1345.192577209152
 20
286.9547007615952
 30
0.0
 10
-1337.033779711192
 20
291.5894952048803
 30
0.0
 10
-1330.723184990547
 20
298.2831713143185
 30
0.0
 10
-1326.260687213885
 20
307.0452893676834
 30
0.0
 10
-1321.798295270556
 20
315.8073721432701
 30
0.0
 10
-1319.088291660123
 20
326.3218785295314
 30
0.0
 10
-1318.149796938135
 20
338.5984040820173
 30
0.0
 10
-1318.149796938135
 20
338.5984040820173
 30
0.0
 10
-1357.564881928282
 20
338.5984040820173
 30
0.0
 10
-1357.564881928282
 20
338.5984040820173
 30
0.0
 10
-1357.564881928282
 20
338.5984040820173
 30
0.0
 10
-1357.564881928282
 20
357.5302940772841
 30
0.0
 10
-1357.564881928282
 20
357.5302940772841
 30
0.0
 10
-1357.564881928282
 20
357.5302940772841
 30
0.0
 10
-1293.931884721968
 20
357.5302940772841
 30
0.0
 10
-1293.931884721968
 20
357.5302940772841
 30
0.0
 10
-1293.673404444254
 20
355.8161821332685
 30
0.0
 10
-1293.501001944297
 20
353.7956826893292
 30
0.0
 10
-1293.46269027764
 20
351.4399032454733
 30
0.0
 10
-1293.41478305543
 20
349.0747046349532
 30
0.0
 10
-1293.41478305543
 20
347.4466704686943
 30
0.0
 10
-1293.41478305543
 20
346.5848696355765
 30
0.0
 10
-1293.41478305543
 20
329.6734790842482
 30
0.0
 10
-1296.555775276867
 20
314.5624899213591
 30
0.0
 10
-1302.866405275289
 20
301.2038890913664
 30
0.0
 10
-1309.176999995934
 20
287.8547779835922
 30
0.0
 10
-1318.494601938049
 20
277.3402715973326
 30
0.0
 10
-1330.809403879415
 20
269.6985757659096
 30
0.0
 10
-1343.133801376334
 20
262.0568799344863
 30
0.0
 10
-1358.378881372522
 20
258.2359791021082
 30
0.0
 10
-1376.496771923548
 20
258.2359791021082
 30
0.0
  0
ENDBLK
  5
110
330
10D
100
AcDbEntity
  8
0
100
AcDbBlockEnd
  0
BLOCK
  5
114
330
112
100
AcDbEntity
  8
0
100
AcDbBlockBegin
  2
block 28
 70
     0
 10
0.0
 20
0.0
 30
0.0
  3
block 28
  1

  0
POLYLINE
  5
116
330
112
100
AcDbEntity
  8
Camada 1
 62
   250
420
  2499364
370
     9
100
AcDb2dPolyline
 66
     1
 10
0.0
 20
0.0
 30
0.0
  0
VERTEX
  5
117
330
116
100
AcDbEntity
  8
Camada 1
 62
   250
420
  2499364
370
     9
100
AcDbVertex
100
AcDb2dVertex
 10
-1529.570295218614
 20
262.0951916011433
 30
0.0
  0
VERTEX
  5
118
330
116
100
AcDbEntity
  8
Camada 1
 62
   250
420
  2499364
370
     9
100
AcDbVertex
100
AcDb2dVertex
 10
-1529.570295218614
 20
447.5645804436647
 30
0.0
  0
VERTEX
  5
119
330
116
100
AcDbEntity
  8
Camada 1
 62
   250
420
  2499364
370
     9
100
AcDbVertex
100
AcDb2dVertex
 10
-1506.645172446567
 20
447.5645804436647
 30
0.0
  0
VERTEX
  5
11A
330
116
100
AcDbEntity
  8
Camada 1
 62
   250
420
  2499364
370
     9
100
AcDbVertex
100
AcDb2dVertex
 10
-1506.645172446567
 20
262.0951916011433
 30
0.0
  0
VERTEX
  5
11B
330
116
100
AcDbEntity
  8
Camada 1
 62
   250
420
  2499364
370
     9
100
AcDbVertex
100
AcDb2dVertex
 10
-1529.570295218614
 20
262.0951916011433
 30
0.0
  0
SEQEND
  5
11C
330
116
100
AcDbEntity
  8
Camada 1
 62
   250
420
  2499364
370
     9
  0
ENDBLK
  5
115
330
112
100
AcDbEntity
  8
0
100
AcDbBlockEnd
  0
ENDSEC
  0
SECTION
  2
ENTITIES
  0
INSERT
  5
42
330
1F
100
AcDbEntity
  8
Camada 1
100
AcDbBlockReference
  2
block 2
 10
0.0
 20
0.0
 30
0.0
  0
INSERT
  5
47
330
1F
100
AcDbEntity
  8
Camada 1
100
AcDbBlockReference
  2
block 3
 10
0.0
 20
0.0
 30
0.0
  0
INSERT
  5
4C
330
1F
100
AcDbEntity
  8
Camada 1
100
AcDbBlockReference
  2
block 4
 10
0.0
 20
0.0
 30
0.0
  0
INSERT
  5
51
330
1F
100
AcDbEntity
  8
Camada 1
100
AcDbBlockReference
  2
block 5
 10
0.0
 20
0.0
 30
0.0
  0
INSERT
  5
56
330
1F
100
AcDbEntity
  8
Camada 1
100
AcDbBlockReference
  2
block 6
 10
0.0
 20
0.0
 30
0.0
  0
INSERT
  5
5B
330
1F
100
AcDbEntity
  8
Camada 1
100
AcDbBlockReference
  2
block 7
 10
0.0
 20
0.0
 30
0.0
  0
INSERT
  5
6C
330
1F
100
AcDbEntity
  8
Camada 1
100
AcDbBlockReference
  2
block 8
 10
0.0
 20
0.0
 30
0.0
  0
INSERT
  5
71
330
1F
100
AcDbEntity
  8
Camada 1
100
AcDbBlockReference
  2
block 9
 10
0.0
 20
0.0
 30
0.0
  0
INSERT
  5
76
330
1F
100
AcDbEntity
  8
Camada 1
100
AcDbBlockReference
  2
block 10
 10
0.0
 20
0.0
 30
0.0
  0
INSERT
  5
84
330
1F
100
AcDbEntity
  8
Camada 1
100
AcDbBlockReference
  2
block 11
 10
0.0
 20
0.0
 30
0.0
  0
INSERT
  5
89
330
1F
100
AcDbEntity
  8
Camada 1
100
AcDbBlockReference
  2
block 12
 10
0.0
 20
0.0
 30
0.0
  0
INSERT
  5
8E
330
1F
100
AcDbEntity
  8
Camada 1
100
AcDbBlockReference
  2
block 13
 10
0.0
 20
0.0
 30
0.0
  0
INSERT
  5
93
330
1F
100
AcDbEntity
  8
Camada 1
100
AcDbBlockReference
  2
block 14
 10
0.0
 20
0.0
 30
0.0
  0
INSERT
  5
98
330
1F
100
AcDbEntity
  8
Camada 1
100
AcDbBlockReference
  2
block 15
 10
0.0
 20
0.0
 30
0.0
  0
INSERT
  5
9D
330
1F
100
AcDbEntity
  8
Camada 1
100
AcDbBlockReference
  2
block 16
 10
0.0
 20
0.0
 30
0.0
  0
INSERT
  5
B1
330
1F
100
AcDbEntity
  8
Camada 1
100
AcDbBlockReference
  2
block 17
 10
0.0
 20
0.0
 30
0.0
  0
INSERT
  5
C4
330
1F
100
AcDbEntity
  8
Camada 1
100
AcDbBlockReference
  2
block 18
 10
0.0
 20
0.0
 30
0.0
  0
INSERT
  5
C9
330
1F
100
AcDbEntity
  8
Camada 1
100
AcDbBlockReference
  2
block 19
 10
0.0
 20
0.0
 30
0.0
  0
INSERT
  5
CE
330
1F
100
AcDbEntity
  8
Camada 1
100
AcDbBlockReference
  2
block 20
 10
0.0
 20
0.0
 30
0.0
  0
INSERT
  5
D3
330
1F
100
AcDbEntity
  8
Camada 1
100
AcDbBlockReference
  2
block 21
 10
0.0
 20
0.0
 30
0.0
  0
INSERT
  5
E2
330
1F
100
AcDbEntity
  8
Camada 1
100
AcDbBlockReference
  2
block 22
 10
0.0
 20
0.0
 30
0.0
  0
INSERT
  5
EC
330
1F
100
AcDbEntity
  8
Camada 1
100
AcDbBlockReference
  2
block 23
 10
0.0
 20
0.0
 30
0.0
  0
INSERT
  5
F1
330
1F
100
AcDbEntity
  8
Camada 1
100
AcDbBlockReference
  2
block 24
 10
0.0
 20
0.0
 30
0.0
  0
INSERT
  5
104
330
1F
100
AcDbEntity
  8
Camada 1
100
AcDbBlockReference
  2
block 25
 10
0.0
 20
0.0
 30
0.0
  0
INSERT
  5
109
330
1F
100
AcDbEntity
  8
Camada 1
100
AcDbBlockReference
  2
block 26
 10
0.0
 20
0.0
 30
0.0
  0
INSERT
  5
10E
330
1F
100
AcDbEntity
  8
Camada 1
100
AcDbBlockReference
  2
block 27
 10
0.0
 20
0.0
 30
0.0
  0
INSERT
  5
113
330
1F
100
AcDbEntity
  8
Camada 1
100
AcDbBlockReference
  2
block 28
 10
0.0
 20
0.0
 30
0.0
  0
ENDSEC
  0
SECTION
  2
OBJECTS
  0
DICTIONARY
  5
C
330
0
100
AcDbDictionary
281
     1
  3
ACAD_GROUP
350
D
  3
ACAD_LAYOUT
350
1A
  3
ACAD_MATERIAL
350
3B
  3
ACAD_MLEADERSTYLE
350
11E
  3
ACAD_MLINESTYLE
350
17
  3
ACAD_PLOTSETTINGS
350
19
  3
ACAD_PLOTSTYLENAME
350
E
  3
ACAD_TABLESTYLE
350
11D
  3
ACAD_VISUALSTYLE
350
2A
  0
SUN
  5
3F
330
29
100
AcDbSun
 90
        1
290
     0
 63
     7
421
 16777215
 40
1.0
291
     1
 91
  2455826
 92
 54000000
292
     0
 70
     2
 71
   256
280
     1
  0
DICTIONARY
  5
D
102
{ACAD_REACTORS
330
C
102
}
330
C
100
AcDbDictionary
281
     1
  0
DICTIONARY
  5
1A
102
{ACAD_REACTORS
330
C
102
}
330
C
100
AcDbDictionary
281
     1
  3
Layout1
350
1E
  3
Layout2
350
26
  3
Model
350
22
  0
DICTIONARY
  5
3B
102
{ACAD_REACTORS
330
C
102
}
330
C
100
AcDbDictionary
281
     1
  3
ByBlock
350
3D
  3
ByLayer
350
3C
  3
Global
350
3E
  0
DICTIONARY
  5
11E
102
{ACAD_REACTORS
330
C
102
}
330
C
100
AcDbDictionary
281
     1
  0
DICTIONARY
  5
17
102
{ACAD_REACTORS
330
C
102
}
330
C
100
AcDbDictionary
281
     1
  3
Standard
350
18
  0
DICTIONARY
  5
19
102
{ACAD_REACTORS
330
C
102
}
330
C
100
AcDbDictionary
281
     1
  0
ACDBDICTIONARYWDFLT
  5
E
102
{ACAD_REACTORS
330
C
102
}
330
C
100
AcDbDictionary
281
     1
  3
Normal
350
F
100
AcDbDictionaryWithDefault
340
F
  0
DICTIONARY
  5
11D
102
{ACAD_REACTORS
330
C
102
}
330
C
100
AcDbDictionary
281
     1
  0
DICTIONARY
  5
2A
102
{ACAD_REACTORS
330
C
102
}
330
C
100
AcDbDictionary
281
     1
  3
2dWireframe
350
2F
  3
3D Hidden
350
31
  3
3dWireframe
350
30
  3
Basic
350
32
  3
Brighten
350
36
  3
ColorChange
350
3A
  3
Conceptual
350
34
  3
Dim
350
35
  3
Facepattern
350
39
  3
Flat
350
2B
  3
FlatWithEdges
350
2C
  3
Gouraud
350
2D
  3
GouraudWithEdges
350
2E
  3
Linepattern
350
38
  3
Realistic
350
33
  3
Thicken
350
37
  0
LAYOUT
  5
1E
102
{ACAD_REACTORS
330
1A
102
}
330
1A
100
AcDbPlotSettings
  1

  2
none_device
  4

  6

 40
0.0
 41
0.0
 42
0.0
 43
0.0
 44
0.0
 45
0.0
 46
0.0
 47
0.0
 48
0.0
 49
0.0
140
0.0
141
0.0
142
1.0
143
1.0
 70
   688
 72
     0
 73
     0
 74
     5
  7

 75
    16
 76
     0
 77
     2
 78
   300
147
1.0
148
0.0
149
0.0
100
AcDbLayout
  1
Layout1
 70
     1
 71
     1
 10
0.0
 20
0.0
 11
12.0
 21
9.0
 12
0.0
 22
0.0
 32
0.0
 14
1.000000000000000E+20
 24
1.000000000000000E+20
 34
1.000000000000000E+20
 15
-1.000000000000000E+20
 25
-1.000000000000000E+20
 35
-1.000000000000000E+20
146
0.0
 13
0.0
 23
0.0
 33
0.0
 16
1.0
 26
0.0
 36
0.0
 17
0.0
 27
1.0
 37
0.0
 76
     0
330
1B
  0
LAYOUT
  5
26
102
{ACAD_REACTORS
330
1A
102
}
330
1A
100
AcDbPlotSettings
  1

  2
none_device
  4

  6

 40
0.0
 41
0.0
 42
0.0
 43
0.0
 44
0.0
 45
0.0
 46
0.0
 47
0.0
 48
0.0
 49
0.0
140
0.0
141
0.0
142
1.0
143
1.0
 70
   688
 72
     0
 73
     0
 74
     5
  7

 75
    16
 76
     0
 77
     2
 78
   300
147
1.0
148
0.0
149
0.0
100
AcDbLayout
  1
Layout2
 70
     1
 71
     2
 10
0.0
 20
0.0
 11
0.0
 21
0.0
 12
0.0
 22
0.0
 32
0.0
 14
0.0
 24
0.0
 34
0.0
 15
0.0
 25
0.0
 35
0.0
146
0.0
 13
0.0
 23
0.0
 33
0.0
 16
1.0
 26
0.0
 36
0.0
 17
0.0
 27
1.0
 37
0.0
 76
     0
330
23
  0
LAYOUT
  5
22
102
{ACAD_REACTORS
330
1A
102
}
330
1A
100
AcDbPlotSettings
  1

  2
none_device
  4

  6

 40
0.0
 41
0.0
 42
0.0
 43
0.0
 44
0.0
 45
0.0
 46
0.0
 47
0.0
 48
0.0
 49
0.0
140
0.0
141
0.0
142
1.0
143
1.0
 70
  1712
 72
     0
 73
     0
 74
     0
  7

 75
     0
 76
     0
 77
     2
 78
   300
147
1.0
148
0.0
149
0.0
100
AcDbLayout
  1
Model
 70
     1
 71
     0
 10
0.0
 20
0.0
 11
12.0
 21
9.0
 12
0.0
 22
0.0
 32
0.0
 14
1.000000000000000E+20
 24
1.000000000000000E+20
 34
1.000000000000000E+20
 15
-1.000000000000000E+20
 25
-1.000000000000000E+20
 35
-1.000000000000000E+20
146
0.0
 13
0.0
 23
0.0
 33
0.0
 16
1.0
 26
0.0
 36
0.0
 17
0.0
 27
1.0
 37
0.0
 76
     0
330
1F
331
29
  0
MATERIAL
  5
3D
102
{ACAD_REACTORS
330
3B
102
}
330
3B
100
AcDbMaterial
  1
ByBlock
 72
     1
 94
      127
  0
MATERIAL
  5
3C
102
{ACAD_REACTORS
330
3B
102
}
330
3B
100
AcDbMaterial
  1
ByLayer
 72
     1
 94
      127
  0
MATERIAL
  5
3E
102
{ACAD_REACTORS
330
3B
102
}
330
3B
100
AcDbMaterial
  1
Global
 72
     1
 94
      127
  0
MLINESTYLE
  5
18
102
{ACAD_REACTORS
330
17
102
}
330
17
100
AcDbMlineStyle
  2
Standard
 70
     0
  3

 62
   256
 51
90.0
 52
90.0
 71
     2
 49
0.5
 62
   256
  6
BYLAYER
 49
-0.5
 62
   256
  6
BYLAYER
  0
ACDBPLACEHOLDER
  5
F
102
{ACAD_REACTORS
330
E
102
}
330
E
  0
VISUALSTYLE
  5
2F
102
{ACAD_REACTORS
330
2A
102
}
330
2A
100
AcDbVisualStyle
  2
2dWireframe
 70
     4
177
     2
291
     0
 71
     0
176
     1
 72
     2
176
     1
 73
     0
176
     1
 90
        0
176
     1
 40
-0.6
176
     1
 41
-30.0
176
     1
 62
     5
 63
     7
421
 16777215
176
     1
 74
     1
176
     1
 91
        4
176
     1
 64
     7
176
     1
 65
   257
176
     1
 75
     1
176
     1
175
     1
176
     1
 42
1.0
176
     1
 92
        0
176
     1
 66
   257
176
     1
 43
1.0
176
     1
 76
     1
176
     1
 77
     6
176
     1
 78
     2
176
     1
 67
     7
176
     1
 79
     5
176
     1
170
     0
176
     1
171
     0
176
     1
290
     0
176
     1
 93
        1
176
     1
 44
0.0
176
     1
173
     0
176
     1
  0
VISUALSTYLE
  5
31
102
{ACAD_REACTORS
330
2A
102
}
330
2A
100
AcDbVisualStyle
  2
3D Hidden
 70
     6
177
     2
291
     0
 71
     1
176
     1
 72
     2
176
     1
 73
     2
176
     1
 90
        0
176
     1
 40
-0.6
176
     1
 41
-30.0
176
     1
 62
     5
 63
     7
421
 16777215
176
     1
 74
     2
176
     1
 91
        2
176
     1
 64
     7
176
     1
 65
   257
176
     1
 75
     2
176
     1
175
     1
176
     1
 42
40.0
176
     1
 92
        0
176
     1
 66
   257
176
     1
 43
1.0
176
     1
 76
     1
176
     1
 77
     6
176
     1
 78
     2
176
     1
 67
     7
176
     1
 79
     3
176
     1
170
     0
176
     1
171
     0
176
     1
290
     0
176
     1
 93
        1
176
     1
 44
0.0
176
     1
173
     0
176
     1
  0
VISUALSTYLE
  5
30
102
{ACAD_REACTORS
330
2A
102
}
330
2A
100
AcDbVisualStyle
  2
3dWireframe
 70
     5
177
     2
291
     0
 71
     0
176
     1
 72
     2
176
     1
 73
     0
176
     1
 90
        0
176
     1
 40
-0.6
176
     1
 41
-30.0
176
     1
 62
     5
 63
     7
421
 16777215
176
     1
 74
     1
176
     1
 91
        4
176
     1
 64
     7
176
     1
 65
   257
176
     1
 75
     1
176
     1
175
     1
176
     1
 42
1.0
176
     1
 92
        0
176
     1
 66
   257
176
     1
 43
1.0
176
     1
 76
     1
176
     1
 77
     6
176
     1
 78
     2
176
     1
 67
     7
176
     1
 79
     5
176
     1
170
     0
176
     1
171
     0
176
     1
290
     0
176
     1
 93
        1
176
     1
 44
0.0
176
     1
173
     0
176
     1
  0
VISUALSTYLE
  5
32
102
{ACAD_REACTORS
330
2A
102
}
330
2A
100
AcDbVisualStyle
  2
Basic
 70
     7
177
     2
291
     1
 71
     1
176
     1
 72
     0
176
     1
 73
     1
176
     1
 90
        0
176
     1
 40
-0.6
176
     1
 41
-30.0
176
     1
 62
     5
 63
     7
421
 16777215
176
     1
 74
     0
176
     1
 91
        4
176
     1
 64
     7
176
     1
 65
   257
176
     1
 75
     1
176
     1
175
     1
176
     1
 42
1.0
176
     1
 92
        8
176
     1
 66
     7
176
     1
 43
1.0
176
     1
 76
     1
176
     1
 77
     6
176
     1
 78
     2
176
     1
 67
     7
176
     1
 79
     5
176
     1
170
     0
176
     1
171
     0
176
     1
290
     0
176
     1
 93
        1
176
     1
 44
0.0
176
     1
173
     0
176
     1
  0
VISUALSTYLE
  5
36
102
{ACAD_REACTORS
330
2A
102
}
330
2A
100
AcDbVisualStyle
  2
Brighten
 70
    12
177
     2
291
     1
 71
     2
176
     1
 72
     2
176
     1
 73
     0
176
     1
 90
        0
176
     1
 40
-0.6
176
     1
 41
-30.0
176
     1
 62
     5
 63
     7
421
 16777215
176
     1
 74
     1
176
     1
 91
        4
176
     1
 64
     7
176
     1
 65
   257
176
     1
 75
     1
176
     1
175
     1
176
     1
 42
1.0
176
     1
 92
        8
176
     1
 66
     7
176
     1
 43
1.0
176
     1
 76
     1
176
     1
 77
     6
176
     1
 78
     2
176
     1
 67
     7
176
     1
 79
     5
176
     1
170
     0
176
     1
171
     0
176
     1
290
     0
176
     1
 93
        1
176
     1
 44
50.0
176
     1
173
     0
176
     1
  0
VISUALSTYLE
  5
3A
102
{ACAD_REACTORS
330
2A
102
}
330
2A
100
AcDbVisualStyle
  2
ColorChange
 70
    16
177
     2
291
     1
 71
     2
176
     1
 72
     2
176
     1
 73
     3
176
     1
 90
        0
176
     1
 40
-0.6
176
     1
 41
-30.0
176
     1
 62
     5
 63
     8
421
  8421504
176
     1
 74
     1
176
     1
 91
        4
176
     1
 64
     7
176
     1
 65
   257
176
     1
 75
     1
176
     1
175
     1
176
     1
 42
1.0
176
     1
 92
        8
176
     1
 66
     8
424
  8421504
176
     1
 43
1.0
176
     1
 76
     1
176
     1
 77
     6
176
     1
 78
     2
176
     1
 67
     7
176
     1
 79
     5
176
     1
170
     0
176
     1
171
     0
176
     1
290
     0
176
     1
 93
        1
176
     1
 44
0.0
176
     1
173
     0
176
     1
  0
VISUALSTYLE
  5
34
102
{ACAD_REACTORS
330
2A
102
}
330
2A
100
AcDbVisualStyle
  2
Conceptual
 70
     9
177
     2
291
     0
 71
     3
176
     1
 72
     2
176
     1
 73
     0
176
     1
 90
        0
176
     1
 40
-0.6
176
     1
 41
-30.0
176
     1
 62
     5
 63
     7
421
 16777215
176
     1
 74
     2
176
     1
 91
        2
176
     1
 64
     7
176
     1
 65
   257
176
     1
 75
     1
176
     1
175
     1
176
     1
 42
40.0
176
     1
 92
        8
176
     1
 66
     7
176
     1
 43
1.0
176
     1
 76
     1
176
     1
 77
     6
176
     1
 78
     2
176
     1
 67
     7
176
     1
 79
     3
176
     1
170
     0
176
     1
171
     0
176
     1
290
     0
176
     1
 93
        1
176
     1
 44
0.0
176
     1
173
     0
176
     1
  0
VISUALSTYLE
  5
35
102
{ACAD_REACTORS
330
2A
102
}
330
2A
100
AcDbVisualStyle
  2
Dim
 70
    11
177
     2
291
     1
 71
     2
176
     1
 72
     2
176
     1
 73
     0
176
     1
 90
        0
176
     1
 40
-0.6
176
     1
 41
-30.0
176
     1
 62
     5
 63
     7
421
 16777215
176
     1
 74
     1
176
     1
 91
        4
176
     1
 64
     7
176
     1
 65
   257
176
     1
 75
     1
176
     1
175
     1
176
     1
 42
1.0
176
     1
 92
        8
176
     1
 66
     7
176
     1
 43
1.0
176
     1
 76
     1
176
     1
 77
     6
176
     1
 78
     2
176
     1
 67
     7
176
     1
 79
     5
176
     1
170
     0
176
     1
171
     0
176
     1
290
     0
176
     1
 93
        1
176
     1
 44
-50.0
176
     1
173
     0
176
     1
  0
VISUALSTYLE
  5
39
102
{ACAD_REACTORS
330
2A
102
}
330
2A
100
AcDbVisualStyle
  2
Facepattern
 70
    15
177
     2
291
     1
 71
     2
176
     1
 72
     2
176
     1
 73
     0
176
     1
 90
        0
176
     1
 40
-0.6
176
     1
 41
-30.0
176
     1
 62
     5
 63
     7
421
 16777215
176
     1
 74
     1
176
     1
 91
        4
176
     1
 64
     7
176
     1
 65
   257
176
     1
 75
     1
176
     1
175
     1
176
     1
 42
1.0
176
     1
 92
        8
176
     1
 66
     7
176
     1
 43
1.0
176
     1
 76
     1
176
     1
 77
     6
176
     1
 78
     2
176
     1
 67
     7
176
     1
 79
     5
176
     1
170
     0
176
     1
171
     0
176
     1
290
     0
176
     1
 93
        1
176
     1
 44
0.0
176
     1
173
     0
176
     1
  0
VISUALSTYLE
  5
2B
102
{ACAD_REACTORS
330
2A
102
}
330
2A
100
AcDbVisualStyle
  2
Flat
 70
     0
177
     2
291
     1
 71
     2
176
     1
 72
     1
176
     1
 73
     1
176
     1
 90
        2
176
     1
 40
-0.6
176
     1
 41
30.0
176
     1
 62
     5
 63
     7
421
 16777215
176
     1
 74
     0
176
     1
 91
        4
176
     1
 64
     7
176
     1
 65
   257
176
     1
 75
     1
176
     1
175
     1
176
     1
 42
1.0
176
     1
 92
        8
176
     1
 66
     7
176
     1
 43
1.0
176
     1
 76
     1
176
     1
 77
     6
176
     1
 78
     2
176
     1
 67
     7
176
     1
 79
     5
176
     1
170
     0
176
     1
171
     0
176
     1
290
     0
176
     1
 93
       13
176
     1
 44
0.0
176
     1
173
     0
176
     1
  0
VISUALSTYLE
  5
2C
102
{ACAD_REACTORS
330
2A
102
}
330
2A
100
AcDbVisualStyle
  2
FlatWithEdges
 70
     1
177
     2
291
     1
 71
     2
176
     1
 72
     1
176
     1
 73
     1
176
     1
 90
        2
176
     1
 40
-0.6
176
     1
 41
30.0
176
     1
 62
     5
 63
     7
421
 16777215
176
     1
 74
     1
176
     1
 91
        4
176
     1
 64
     7
176
     1
 65
   257
176
     1
 75
     1
176
     1
175
     1
176
     1
 42
1.0
176
     1
 92
        0
176
     1
 66
   257
176
     1
 43
1.0
176
     1
 76
     1
176
     1
 77
     6
176
     1
 78
     2
176
     1
 67
     7
176
     1
 79
     5
176
     1
170
     0
176
     1
171
     0
176
     1
290
     0
176
     1
 93
       13
176
     1
 44
0.0
176
     1
173
     0
176
     1
  0
VISUALSTYLE
  5
2D
102
{ACAD_REACTORS
330
2A
102
}
330
2A
100
AcDbVisualStyle
  2
Gouraud
 70
     2
177
     2
291
     1
 71
     2
176
     1
 72
     2
176
     1
 73
     1
176
     1
 90
        2
176
     1
 40
-0.6
176
     1
 41
30.0
176
     1
 62
     5
 63
     7
421
 16777215
176
     1
 74
     0
176
     1
 91
        4
176
     1
 64
     7
176
     1
 65
   257
176
     1
 75
     1
176
     1
175
     1
176
     1
 42
1.0
176
     1
 92
        0
176
     1
 66
     7
176
     1
 43
1.0
176
     1
 76
     1
176
     1
 77
     6
176
     1
 78
     2
176
     1
 67
     7
176
     1
 79
     5
176
     1
170
     0
176
     1
171
     0
176
     1
290
     0
176
     1
 93
       13
176
     1
 44
0.0
176
     1
173
     0
176
     1
  0
VISUALSTYLE
  5
2E
102
{ACAD_REACTORS
330
2A
102
}
330
2A
100
AcDbVisualStyle
  2
GouraudWithEdges
 70
     3
177
     2
291
     1
 71
     2
176
     1
 72
     2
176
     1
 73
     1
176
     1
 90
        2
176
     1
 40
-0.6
176
     1
 41
30.0
176
     1
 62
     5
 63
     7
421
 16777215
176
     1
 74
     1
176
     1
 91
        4
176
     1
 64
     7
176
     1
 65
   257
176
     1
 75
     1
176
     1
175
     1
176
     1
 42
1.0
176
     1
 92
        0
176
     1
 66
   257
176
     1
 43
1.0
176
     1
 76
     1
176
     1
 77
     6
176
     1
 78
     2
176
     1
 67
     7
176
     1
 79
     5
176
     1
170
     0
176
     1
171
     0
176
     1
290
     0
176
     1
 93
       13
176
     1
 44
0.0
176
     1
173
     0
176
     1
  0
VISUALSTYLE
  5
38
102
{ACAD_REACTORS
330
2A
102
}
330
2A
100
AcDbVisualStyle
  2
Linepattern
 70
    14
177
     2
291
     1
 71
     2
176
     1
 72
     2
176
     1
 73
     0
176
     1
 90
        0
176
     1
 40
-0.6
176
     1
 41
-30.0
176
     1
 62
     5
 63
     7
421
 16777215
176
     1
 74
     1
176
     1
 91
        4
176
     1
 64
     7
176
     1
 65
   257
176
     1
 75
     7
176
     1
175
     7
176
     1
 42
1.0
176
     1
 92
        8
176
     1
 66
     7
176
     1
 43
1.0
176
     1
 76
     1
176
     1
 77
     6
176
     1
 78
     2
176
     1
 67
     7
176
     1
 79
     5
176
     1
170
     0
176
     1
171
     0
176
     1
290
     0
176
     1
 93
        1
176
     1
 44
0.0
176
     1
173
     0
176
     1
  0
VISUALSTYLE
  5
33
102
{ACAD_REACTORS
330
2A
102
}
330
2A
100
AcDbVisualStyle
  2
Realistic
 70
     8
177
     2
291
     0
 71
     2
176
     1
 72
     2
176
     1
 73
     0
176
     1
 90
        0
176
     1
 40
-0.6
176
     1
 41
-30.0
176
     1
 62
     5
 63
     7
421
 16777215
176
     1
 74
     1
176
     1
 91
        0
176
     1
 64
     7
176
     1
 65
   257
176
     1
 75
     1
176
     1
175
     1
176
     1
 42
1.0
176
     1
 92
        8
176
     1
 66
     8
424
  7895160
176
     1
 43
1.0
176
     1
 76
     1
176
     1
 77
     6
176
     1
 78
     2
176
     1
 67
     7
176
     1
 79
     5
176
     1
170
     0
176
     1
171
     0
176
     1
290
     0
176
     1
 93
       13
176
     1
 44
0.0
176
     1
173
     0
176
     1
  0
VISUALSTYLE
  5
37
102
{ACAD_REACTORS
330
2A
102
}
330
2A
100
AcDbVisualStyle
  2
Thicken
 70
    13
177
     2
291
     1
 71
     2
176
     1
 72
     2
176
     1
 73
     0
176
     1
 90
        0
176
     1
 40
-0.6
176
     1
 41
-30.0
176
     1
 62
     5
 63
     7
421
 16777215
176
     1
 74
     1
176
     1
 91
        4
176
     1
 64
     7
176
     1
 65
   257
176
     1
 75
     1
176
     1
175
     1
176
     1
 42
1.0
176
     1
 92
       12
176
     1
 66
     7
176
     1
 43
1.0
176
     1
 76
     1
176
     1
 77
     6
176
     1
 78
     2
176
     1
 67
     7
176
     1
 79
     5
176
     1
170
     0
176
     1
171
     0
176
     1
290
     0
176
     1
 93
        1
176
     1
 44
0.0
176
     1
173
     0
176
     1
  0
ENDSEC
  0
EOF
